<svg width="100" height="100" viewBox="0 0 100 100" fill="none" xmlns="http://www.w3.org/2000/svg">
<path fill-rule="evenodd" clip-rule="evenodd" d="M87.3751 15.5355L85.3189 15.2084L84.7793 13.1959L87.8814 12.3625L87.3751 15.5355ZM59.8335 44.348L58.0605 45.4396L58.0564 45.4355L58.0501 45.4251L58.0293 45.3917L57.9585 45.273L57.7085 44.8417C57.4168 44.3315 57.1355 43.8154 56.8647 43.2938C56.0071 41.6544 55.2596 39.9597 54.6272 38.2209C53.923 36.2542 53.3189 34.0021 53.2251 31.823C53.1335 29.6521 53.5376 27.2959 55.1543 25.448C56.6064 23.7896 59.3439 22.2625 62.221 20.9417C65.2022 19.5688 68.7105 18.2521 72.0335 17.1125C76.1495 15.7072 80.307 14.426 84.5001 13.2709L84.7085 13.2125L84.7814 13.1917L85.323 15.2063L87.3793 15.5334L87.3668 15.6105L87.3314 15.8313C87.1234 17.1094 86.9053 18.3858 86.6772 19.6605C86.1221 22.795 85.5165 25.9204 84.8605 29.0355C84.1189 32.5375 83.2564 36.2084 82.3418 39.2813C81.9343 40.6863 81.4566 42.07 80.9105 43.4271C80.4355 44.573 79.873 45.6855 79.1897 46.4688C77.7272 48.1396 75.4501 48.6626 73.4605 48.7959C71.3855 48.9355 69.0855 48.6834 67.0168 48.3167C65.1718 47.9846 63.3445 47.5605 61.5418 47.0459C60.8042 46.8381 60.0707 46.6159 59.3418 46.3792L59.2105 46.3334L59.1751 46.3209L59.1647 46.3188H59.1605L59.8335 44.348ZM59.8335 44.348L58.0605 45.4396L58.4522 46.0751L59.1605 46.3188L59.8335 44.348ZM61.2335 42.6126C63.367 43.2759 65.5382 43.8116 67.7355 44.2167C69.6605 44.5563 71.5855 44.748 73.1814 44.6396C74.8668 44.5271 75.7126 44.1146 76.0522 43.7271C76.2689 43.4771 76.623 42.8855 77.0605 41.8313C77.5509 40.6083 77.9799 39.3616 78.346 38.0959C79.2147 35.1792 80.0501 31.6313 80.7835 28.1751C81.4873 24.8312 82.1318 21.4751 82.7168 18.1084L82.073 18.2959C79.7626 18.9771 76.6418 19.9375 73.3855 21.0542C70.123 22.173 66.7626 23.4376 63.9605 24.7271C61.0522 26.0646 59.0897 27.2792 58.2897 28.1938C57.6501 28.923 57.321 30.0459 57.3897 31.6438C57.4564 33.2334 57.9126 35.0396 58.5501 36.8126C59.2779 38.8187 60.1756 40.7591 61.2335 42.6126ZM21.3814 20.7792L20.8418 22.7917L18.7835 23.1188L18.2793 19.948L21.3814 20.7792ZM41.5522 46.473L43.3251 47.5625L43.3293 47.5584L43.3335 47.55L43.3501 47.523L43.4105 47.423L43.6189 47.0688C44.6152 45.3291 45.462 43.508 46.1501 41.625C46.7293 40.0084 47.2335 38.1355 47.3105 36.3105C47.3897 34.4917 47.0522 32.4626 45.648 30.8584C44.4064 29.4376 42.1085 28.1709 39.7751 27.0959C37.3355 25.973 34.471 24.898 31.7647 23.9709C28.4127 22.8272 25.0272 21.7844 21.6126 20.8438L21.4418 20.7959L21.3814 20.7792L20.8418 22.7917L18.7835 23.1188L18.7939 23.1813L18.823 23.3625L18.9355 24.0417C19.4975 27.4116 20.1303 30.7693 20.8335 34.1126C21.4376 36.9626 22.1418 39.9563 22.8876 42.4667C23.2626 43.7209 23.6543 44.8896 24.0647 45.8751C24.4543 46.8126 24.9314 47.7688 25.5314 48.4521C26.823 49.9313 28.8085 50.3688 30.4522 50.4771C32.1855 50.5938 34.0876 50.3834 35.7855 50.0855C37.9177 49.7042 40.0202 49.1724 42.0772 48.4938L42.1835 48.4584L42.2147 48.448L42.2251 48.4438L41.5522 46.473ZM41.5522 46.473L43.3251 47.5625L42.9335 48.2001L42.2251 48.4438L41.5522 46.473ZM40.1501 44.7355C40.2821 44.4994 40.4362 44.2125 40.6126 43.875C41.1085 42.9209 41.7251 41.6209 42.2272 40.2167C42.7376 38.7959 43.096 37.3688 43.148 36.1334C43.2022 34.8855 42.9397 34.0917 42.5126 33.6001C41.923 32.9292 40.4022 31.9709 38.0335 30.8813C35.7751 29.8417 33.0585 28.8188 30.4126 27.9125C28.1078 27.1255 25.7865 26.3878 23.4501 25.7001L23.4585 25.7521C23.8126 27.7521 24.3168 30.4521 24.9105 33.25C25.5043 36.0542 26.1814 38.923 26.8814 41.2792C27.2335 42.4584 27.5793 43.4771 27.9126 44.2771C28.2668 45.1251 28.5335 45.5563 28.6668 45.7105C28.8376 45.9042 29.3897 46.2313 30.7314 46.3209C31.9835 46.4042 33.5126 46.2542 35.0626 45.9813C36.783 45.6724 38.4821 45.2577 40.1501 44.7355ZM35.5876 64.5959C35.0585 64.6251 34.8001 64.7001 34.7335 64.7292C33.7897 65.1563 30.923 66.1563 28.448 67.0001C27.1772 67.4355 25.9585 67.8438 25.0585 68.1459L25.0001 68.1667V79.423C25.3668 79.4063 25.7605 79.3917 26.1626 79.3771C27.8876 79.3146 29.9397 79.2521 30.8293 79.2896C34.5626 79.4376 37.3668 80.3209 39.9626 81.1396L40.0189 81.1584C42.4522 81.9251 44.7064 82.6292 47.6585 82.8521C48.4918 82.9146 49.3022 82.9959 50.0585 83.0709H50.0689C52.973 83.3626 54.8855 83.5084 56.3668 82.9709C57.5189 82.5521 61.7376 80.5959 65.9918 78.4563C68.096 77.398 70.1585 76.3209 71.798 75.398C72.621 74.9355 73.3189 74.523 73.8543 74.1771C74.1196 74.0049 74.3335 73.8591 74.496 73.7396L74.6835 73.5938L74.7418 73.5438C74.9501 73.3334 75.171 72.6 74.8126 71.9105C74.644 71.588 74.3653 71.3367 74.0272 71.2021C73.6105 71.0209 72.9022 70.8813 71.7772 71.0667C69.2397 71.4834 66.2085 72.7042 63.1814 73.9355L63.1397 73.9542C61.6522 74.5584 60.1605 75.1646 58.8376 75.6063C57.5668 76.0292 56.1564 76.4084 54.9272 76.3355C53.2397 76.2313 50.2793 75.7938 47.8376 75.398C46.4345 75.1711 45.033 74.9336 43.6335 74.6855L43.3626 74.6376L43.2668 74.6188L43.6626 70.4855L53.1835 70.6001H53.2043C53.3155 70.5881 53.4256 70.5672 53.5335 70.5376C53.8626 70.4542 54.4272 70.248 55.1376 69.7459C55.3564 69.5896 55.6439 69.3021 55.9126 68.9167C56.0237 68.7556 56.1182 68.5987 56.196 68.4459C55.0353 68.3712 53.8819 68.2082 52.746 67.9584C52.1275 67.8237 51.5139 67.6673 50.9064 67.4896L50.8355 67.4688L39.1751 64.873L39.0647 64.8542L38.6272 64.7876C38.1507 64.7175 37.672 64.664 37.1918 64.6271C36.6583 64.5824 36.1225 64.5719 35.5876 64.5959ZM39.5835 62.8334L39.9605 60.7855L39.998 60.7917L51.9105 63.4417L51.998 63.4688L52.0147 63.4751L52.0939 63.498L52.423 63.5917C52.7126 63.6709 53.1293 63.7792 53.6251 63.8876C54.6376 64.1063 55.9043 64.3084 57.0751 64.3084C58.248 64.3084 59.523 64.7459 60.2105 65.9917C60.798 67.0584 60.6522 68.2126 60.446 68.9751C60.2541 69.649 59.9686 70.2928 59.598 70.8876C60.2328 70.6376 60.9036 70.3681 61.6105 70.0792L61.7397 70.0251C64.6105 68.8584 68.0522 67.4584 71.1001 66.9563C74.6418 66.3771 77.298 67.648 78.5126 69.998C79.5835 72.0709 79.346 74.8042 77.7105 76.4667C77.3001 76.8834 76.6897 77.3063 76.1064 77.6834C75.3633 78.1534 74.6075 78.6029 73.8397 79.0313C72.121 79.998 69.9939 81.1084 67.8605 82.1813C63.648 84.3001 59.2105 86.373 57.7855 86.8896C55.3147 87.7855 52.4564 87.5001 49.9168 87.2459L49.6522 87.2188C48.8836 87.1401 48.1141 87.0706 47.3439 87.0105C43.8855 86.748 41.2355 85.9126 38.8147 85.1501L38.7626 85.1334C36.1585 84.3126 33.8126 83.5813 30.6626 83.4542C29.971 83.4271 28.1085 83.4771 26.3126 83.5438C25.3013 83.5805 24.2902 83.6215 23.2793 83.6667L23.0105 83.6792L20.8314 83.7792V65.1626L22.6585 64.5563C24.141 64.0636 25.6216 63.565 27.1001 63.0605C29.6918 62.175 32.3043 61.2563 33.0168 60.9355C33.7814 60.5896 34.6501 60.4771 35.346 60.4355C36.0855 60.3938 36.846 60.4251 37.5105 60.4751C38.3104 60.5389 39.107 60.6383 39.898 60.773L39.9418 60.7813H39.9543L39.9585 60.7834H39.9626L39.5835 62.8334Z" fill="#043915"/>
<path fill-rule="evenodd" clip-rule="evenodd" d="M73.2301 27.5833C73.438 27.7612 73.6089 27.9782 73.7329 28.2221C73.857 28.4659 73.9318 28.7318 73.9531 29.0046C73.9744 29.2774 73.9417 29.5517 73.857 29.8118C73.7722 30.072 73.6371 30.3129 73.4592 30.5208C67.2488 37.7667 59.5176 48.3854 56.1051 57.0167C56.0044 57.2711 55.8546 57.5032 55.6642 57.6998C55.4738 57.8963 55.2466 58.0534 54.9955 58.1621C54.7444 58.2709 54.4743 58.3291 54.2007 58.3334C53.9271 58.3378 53.6553 58.2882 53.4009 58.1875C53.1465 58.0868 52.9144 57.937 52.7178 57.7466C52.5213 57.5562 52.3642 57.329 52.2554 57.0779C52.1467 56.8268 52.0885 56.5567 52.0842 56.2831C52.0798 56.0095 52.1294 55.7378 52.2301 55.4833C55.903 46.1937 64.003 35.15 70.2926 27.8104C70.6523 27.3911 71.1639 27.1318 71.7147 27.0896C72.2656 27.0474 72.8107 27.2257 73.2301 27.5854M32.0426 34.2667C31.8277 34.4362 31.6484 34.6465 31.5149 34.8854C31.3813 35.1243 31.2961 35.3871 31.2642 35.659C31.2323 35.9308 31.2542 36.2063 31.3288 36.4696C31.4034 36.7329 31.5291 36.979 31.6988 37.1937C36.3697 43.1208 41.4697 50.7062 43.8905 56.9979C44.0983 57.5001 44.4942 57.9011 44.9936 58.1156C45.493 58.33 46.0564 58.3407 46.5636 58.1456C47.0708 57.9504 47.4817 57.5647 47.7086 57.0709C47.9355 56.577 47.9604 56.014 47.778 55.5021C45.1301 48.6187 39.7197 40.6375 34.9697 34.6146C34.6278 34.1807 34.1277 33.9003 33.5792 33.835C33.0307 33.7698 32.4766 33.925 32.0426 34.2667Z" fill="#043915"/>
<path d="M12.5 60.4167H25V87.5001H12.5V60.4167Z" fill="#043915"/>
</svg>
