<svg width="100" height="100" viewBox="0 0 100 100" fill="none" xmlns="http://www.w3.org/2000/svg">
<path d="M47.917 70.8332C53.1253 70.8332 57.5531 69.0109 61.2003 65.3665C64.8475 61.7221 66.6698 57.2943 66.667 52.0832V33.3332H47.917C42.7087 33.3332 38.2823 35.1568 34.6378 38.804C30.9934 42.4512 29.1698 46.8776 29.167 52.0832C29.167 53.8887 29.41 55.6248 29.8962 57.2915C30.3823 58.9582 31.1114 60.5554 32.0837 62.0832L30.417 63.7498C29.6531 64.5137 29.2712 65.4859 29.2712 66.6665C29.2712 67.8471 29.6531 68.8193 30.417 69.5832C31.1809 70.3471 32.1531 70.729 33.3337 70.729C34.5142 70.729 35.4864 70.3471 36.2503 69.5832L37.917 67.9165C39.4448 68.8887 41.042 69.6179 42.7087 70.104C44.3753 70.5901 46.1114 70.8332 47.917 70.8332ZM47.917 62.4998C47.292 62.4998 46.667 62.4304 46.042 62.2915C45.417 62.1526 44.792 61.979 44.167 61.7707L52.917 52.9165C53.6809 52.1526 54.0628 51.1804 54.0628 49.9998C54.0628 48.8193 53.6809 47.8471 52.917 47.0832C52.1531 46.3193 51.1809 45.9373 50.0003 45.9373C48.8198 45.9373 47.8475 46.3193 47.0837 47.0832L38.2295 55.8332C38.0212 55.2082 37.8475 54.5832 37.7087 53.9582C37.5698 53.3332 37.5003 52.7082 37.5003 52.0832C37.5003 49.1665 38.5073 46.7012 40.5212 44.6873C42.535 42.6734 45.0003 41.6665 47.917 41.6665H58.3337V52.0832C58.3337 54.9998 57.3267 57.4651 55.3128 59.479C53.2989 61.4929 50.8337 62.4998 47.917 62.4998ZM50.0003 95.8332L35.6253 84.5832L17.6045 82.3957L15.417 64.3748L4.16699 49.9998L15.417 35.6248L17.6045 17.604L35.6253 15.4165L50.0003 4.1665L64.3753 15.4165L82.3962 17.604L84.5837 35.6248L95.8337 49.9998L84.5837 64.3748L82.3962 82.3957L64.3753 84.5832L50.0003 95.8332ZM50.0003 85.2082L61.042 76.6665L75.0003 74.8957L76.667 61.0415L85.2087 49.9998L76.667 38.9582L74.8962 25.104L61.042 23.3332L50.0003 14.7915L38.9587 23.3332L25.0003 25.104L23.3337 38.9582L14.792 49.9998L23.3337 61.0415L25.1045 74.9998L38.9587 76.6665L50.0003 85.2082Z" fill="#043915"/>
</svg>
