<svg width="130" height="130" viewBox="0 0 130 130" fill="none" xmlns="http://www.w3.org/2000/svg">
<g clip-path="url(#clip0_186_1312)">
<path fill-rule="evenodd" clip-rule="evenodd" d="M49.7036 127.505C55.9453 127.505 62.1259 126.112 67.8924 123.406C73.659 120.699 78.8987 116.732 83.3122 111.731C87.7257 106.731 91.2268 100.794 93.6153 94.2597C96.0039 87.7257 97.2333 80.7226 97.2333 73.6503C97.2333 66.578 96.0039 59.5749 93.6153 53.0409C91.2268 46.5069 87.7257 40.57 83.3122 35.5691C78.8987 30.5682 73.659 26.6013 67.8924 23.8948C62.1259 21.1884 55.9453 19.7954 49.7036 19.7954C37.098 19.7954 25.0086 25.4693 16.095 35.5691C7.18148 45.6689 2.1739 59.3671 2.1739 73.6503C2.1739 87.9335 7.18148 101.632 16.095 111.731C25.0086 121.831 37.098 127.505 49.7036 127.505ZM49.7036 129.968C62.8858 129.968 75.5281 124.035 84.8494 113.473C94.1706 102.912 99.4072 88.5868 99.4072 73.6503C99.4072 58.7138 94.1706 44.389 84.8494 33.8274C75.5281 23.2657 62.8858 17.3322 49.7036 17.3322C36.5214 17.3322 23.8791 23.2657 14.5579 33.8274C5.23662 44.389 0 58.7138 0 73.6503C0 88.5868 5.23662 102.912 14.5579 113.473C23.8791 124.035 36.5214 129.968 49.7036 129.968Z" fill="#043915"/>
<path d="M9.9375 61.9726C11.0858 60.8842 12.8842 60.1477 15.1375 61.3998C16.5531 62.2672 18.5031 63.8711 20.4098 65.516C24.2376 68.7648 28.0654 72.0218 28.0654 68.7648C28.0654 63.8711 34.5654 63.8711 36.7321 68.7648C37.6566 70.8434 37.3821 72.4473 37.1221 74.2231C36.7754 76.6127 36.3999 79.215 38.8771 83.454C41.4049 87.7012 41.7082 96.0155 41.9827 102.3C42.1705 106.891 42.3221 110.402 43.2033 110.402C45.3772 110.402 51.8772 98.1432 54.0222 93.2495C56.1961 88.3477 56.1961 83.454 54.0222 81.0317C53.1635 79.9933 52.3349 78.9234 51.5377 77.8238C48.5911 73.9204 44.2721 68.1183 41.0655 66.3016C36.7321 63.8711 36.7321 56.5061 41.0655 54.0838C42.091 53.4782 43.4705 52.9136 44.886 52.3489C49.6238 50.3113 55.1705 48.0117 51.8772 44.2883C49.5877 41.6941 44.886 40.483 41.2893 39.5255C38.0754 38.6581 35.7065 38.0934 36.7032 36.9314C37.8877 35.6221 38.4582 32.0295 38.7254 28.8298C31.7834 31.022 25.4708 35.2406 20.4189 41.0639C15.367 46.8872 11.7528 54.1112 9.9375 62.0135V61.9726ZM78.2962 40.303C82.4784 44.8691 85.7546 50.392 87.9067 56.5043C90.0589 62.6165 91.0377 69.178 90.7781 75.7521C90.5185 82.3263 89.0263 88.7624 86.401 94.6324C83.7756 100.502 80.0772 105.672 75.5518 109.796C74.5479 108.323 74.4684 105.68 75.624 103.037C77.8051 98.1432 75.624 85.9254 73.479 78.5603C72.1429 74.0104 69.9617 74.1413 67.4412 74.3541C65.91 74.4441 64.3067 74.575 62.66 73.6667C58.3411 71.1953 62.66 63.8711 66.9789 58.9365C70.1567 55.385 70.9945 53.1263 72.0634 50.2703C73.3417 46.3914 75.494 42.9544 78.2962 40.303Z" fill="#043915"/>
<path fill-rule="evenodd" clip-rule="evenodd" d="M49.7044 118.798C54.9816 118.879 60.2203 117.77 65.1164 115.538C70.0125 113.305 74.4684 109.993 78.2253 105.793C81.9822 101.593 84.9654 96.5891 87.0014 91.072C89.0375 85.5549 90.086 79.6344 90.086 73.6544C90.086 67.6744 89.0375 61.7539 87.0014 56.2368C84.9654 50.7197 81.9822 45.7159 78.2253 41.5159C74.4684 37.316 70.0125 34.0035 65.1164 31.771C60.2203 29.5384 54.9816 28.4302 49.7044 28.5107C39.2306 28.6705 29.2336 33.497 21.8769 41.9457C14.5202 50.3944 10.3956 61.7858 10.3956 73.6544C10.3956 85.5231 14.5202 96.9144 21.8769 105.363C29.2336 113.812 39.2306 118.638 49.7044 118.798ZM49.7044 121.31C55.2271 121.31 60.6958 120.078 65.7982 117.683C70.9006 115.288 75.5367 111.778 79.4419 107.353C83.3471 102.929 86.4449 97.6755 88.5583 91.8941C90.6718 86.1127 91.7596 79.9162 91.7596 73.6585C91.7596 67.4008 90.6718 61.2043 88.5583 55.4229C86.4449 49.6415 83.3471 44.3884 79.4419 39.9635C75.5367 35.5386 70.9006 32.0286 65.7982 29.6339C60.6958 27.2391 55.2271 26.0066 49.7044 26.0066C38.5497 26.0066 27.8518 31.0275 19.9643 39.9647C12.0767 48.9019 7.64551 61.0234 7.64551 73.6626C7.64551 86.3018 12.0767 98.4232 19.9643 107.36C27.8518 116.298 38.5497 121.31 49.7044 121.31Z" fill="#043915"/>
<path d="M11.5853 115.549C23.8198 128.847 37.0077 130.623 42.1355 129.846C15.9403 80.287 61.7511 47.3161 87.9391 37.005V34.6646C23.3215 40.3929 10.1336 90.9827 11.5853 115.549Z" fill="#043915"/>
<path fill-rule="evenodd" clip-rule="evenodd" d="M98.338 14.558H92.9791C92.7494 14.5639 92.5312 14.6728 92.3724 14.8608L84.3413 25.5647C83.7635 26.3012 84.4568 27.3814 85.2585 27.0377L91.4552 24.2635C91.5859 24.2154 91.7243 24.2003 91.8606 24.2194C91.997 24.2385 92.128 24.2913 92.2444 24.374C92.3608 24.4567 92.4598 24.5674 92.5343 24.6982C92.6088 24.829 92.6571 24.9767 92.6758 25.131C93.2102 30.4993 96.9947 32.4551 99.7102 32.8888C100.288 32.9707 100.707 33.6663 100.476 34.2718L97.6447 42.0706C97.3775 42.848 98.1791 43.6255 98.8291 43.1999L110.912 35.573C111.042 35.4941 111.15 35.3757 111.224 35.2312C111.298 35.0867 111.335 34.9217 111.331 34.7546V29.0263C111.331 28.6007 111.562 28.2898 111.909 28.167C124.259 22.6596 129.033 8.66598 129.993 1.57098C130.014 1.39402 129.989 1.21395 129.919 1.05366C129.85 0.893365 129.74 0.760096 129.603 0.670801C129.51 0.610282 129.407 0.573942 129.3 0.564417C111.945 -2.54527 102.159 7.92947 99.0964 14.0425C99.0224 14.1976 98.913 14.3274 98.7796 14.4181C98.6462 14.5088 98.4936 14.5571 98.338 14.558ZM118.524 13.0032C119.539 13.0032 120.513 12.5462 121.231 11.7328C121.949 10.9195 122.352 9.81628 122.352 8.66598C122.352 7.51568 121.949 6.4125 121.231 5.59911C120.513 4.78573 119.539 4.32878 118.524 4.32878C117.509 4.32878 116.535 4.78573 115.818 5.59911C115.1 6.4125 114.696 7.51568 114.696 8.66598C114.696 9.81628 115.1 10.9195 115.818 11.7328C116.535 12.5462 117.509 13.0032 118.524 13.0032Z" fill="#043915"/>
</g>
<defs>
<clipPath id="clip0_186_1312">
<rect width="130" height="130" fill="white"/>
</clipPath>
</defs>
</svg>
