<svg width="100" height="100" viewBox="0 0 100 100" fill="none" xmlns="http://www.w3.org/2000/svg">
<rect width="100" height="100" fill="white"/>
<path d="M49.9993 75C56.9438 75 62.8118 72.5694 67.6035 67.7083C72.3952 62.8472 74.8605 56.9444 74.9993 50V25H49.9993C43.0549 25.1389 37.1521 27.6042 32.291 32.3958C27.4299 37.1875 24.9993 43.0556 24.9993 50C24.9993 56.9444 27.4299 62.8472 32.291 67.7083C37.1521 72.5694 43.0549 75 49.9993 75ZM45.1035 68.0208L64.2702 50.9375C64.8952 50.382 65.0688 49.7222 64.791 48.9583C64.5132 48.1944 63.9577 47.7431 63.1243 47.6042L48.1243 46.1458L57.0827 33.75C57.291 33.4028 57.4132 33.0722 57.4493 32.7583C57.4855 32.4444 57.3632 32.15 57.0827 31.875C56.8049 31.5278 56.4577 31.3722 56.041 31.4083C55.6243 31.4444 55.2424 31.6 54.8952 31.875L35.8327 48.9583C35.2077 49.5139 35.0341 50.1736 35.3118 50.9375C35.5896 51.7014 36.1452 52.1528 36.9785 52.2917L51.9785 53.75L42.916 66.1458C42.7077 66.4931 42.6035 66.8222 42.6035 67.1333C42.6035 67.4444 42.7424 67.7403 43.0202 68.0208C43.298 68.3014 43.6285 68.4403 44.0118 68.4375C44.3952 68.4347 44.7591 68.2958 45.1035 68.0208ZM49.9993 83.3333C46.1105 83.3333 42.448 82.725 39.0118 81.5083C35.5757 80.2917 32.4327 78.5736 29.5827 76.3542L23.8535 82.0833C23.4368 82.5 22.9688 82.8125 22.4493 83.0208C21.9299 83.2292 21.391 83.3333 20.8327 83.3333C19.6521 83.3333 18.6632 82.9333 17.866 82.1333C17.0688 81.3333 16.6688 80.3444 16.666 79.1667C16.666 78.6111 16.7702 78.0736 16.9785 77.5542C17.1868 77.0347 17.4993 76.5653 17.916 76.1458L23.6452 70.4167C21.423 67.5694 19.7049 64.4278 18.491 60.9917C17.2771 57.5556 16.6688 53.8917 16.666 50C16.666 40.6944 19.8952 32.8125 26.3535 26.3542C32.8118 19.8958 40.6938 16.6667 49.9993 16.6667H74.9993C77.291 16.6667 79.2535 17.4819 80.8868 19.1125C82.5202 20.7431 83.3355 22.7056 83.3327 25V50C83.3327 59.3056 80.1035 67.1875 73.6452 73.6458C67.1868 80.1042 59.3049 83.3333 49.9993 83.3333Z" fill="#043915"/>
</svg>
