<svg width="100" height="100" viewBox="0 0 100 100" fill="none" xmlns="http://www.w3.org/2000/svg">
<path fill-rule="evenodd" clip-rule="evenodd" d="M50.0007 5.20834C50.8295 5.20834 51.6243 5.53758 52.2104 6.12363C52.7964 6.70969 53.1257 7.50454 53.1257 8.33334V12.5C53.1257 13.3288 52.7964 14.1237 52.2104 14.7097C51.6243 15.2958 50.8295 15.625 50.0007 15.625C49.1719 15.625 48.377 15.2958 47.7909 14.7097C47.2049 14.1237 46.8757 13.3288 46.8757 12.5V8.33334C46.8757 7.50454 47.2049 6.70969 47.7909 6.12363C48.377 5.53758 49.1719 5.20834 50.0007 5.20834ZM18.3298 18.3292C18.9158 17.744 19.71 17.4153 20.5382 17.4153C21.3663 17.4153 22.1605 17.744 22.7465 18.3292L24.384 19.9625C24.9535 20.5516 25.2689 21.3409 25.2621 22.1602C25.2554 22.9796 24.9271 23.7635 24.348 24.3432C23.7689 24.9229 22.9852 25.2519 22.1659 25.2594C21.3465 25.2669 20.557 24.9523 19.9673 24.3833L18.3298 22.7458C17.7446 22.1599 17.4159 21.3656 17.4159 20.5375C17.4159 19.7094 17.7446 18.9151 18.3298 18.3292ZM81.6715 18.3292C82.2567 18.9151 82.5854 19.7094 82.5854 20.5375C82.5854 21.3656 82.2567 22.1599 81.6715 22.7458L80.034 24.3833C79.4416 24.9353 78.6581 25.2359 77.8485 25.2216C77.0389 25.2073 76.2664 24.8793 75.6939 24.3068C75.1213 23.7342 74.7934 22.9618 74.7791 22.1522C74.7648 21.3426 75.0653 20.5591 75.6173 19.9667L77.2548 18.3292C77.8408 17.744 78.635 17.4153 79.4632 17.4153C80.2913 17.4153 81.0855 17.744 81.6715 18.3292ZM50.0007 28.125C44.199 28.125 38.6351 30.4297 34.5327 34.5321C30.4303 38.6344 28.1257 44.1984 28.1257 50C28.1257 55.8016 30.4303 61.3656 34.5327 65.468C38.6351 69.5703 44.199 71.875 50.0007 71.875C55.8023 71.875 61.3663 69.5703 65.4686 65.468C69.571 61.3656 71.8757 55.8016 71.8757 50C71.8757 44.1984 69.571 38.6344 65.4686 34.5321C61.3663 30.4297 55.8023 28.125 50.0007 28.125ZM21.8757 50C21.8757 42.5408 24.8388 35.3871 30.1133 30.1126C35.3877 24.8382 42.5414 21.875 50.0007 21.875C57.4599 21.875 64.6136 24.8382 69.888 30.1126C75.1625 35.3871 78.1257 42.5408 78.1257 50C78.1257 57.4592 75.1625 64.6129 69.888 69.8874C64.6136 75.1618 57.4599 78.125 50.0007 78.125C42.5414 78.125 35.3877 75.1618 30.1133 69.8874C24.8388 64.6129 21.8757 57.4592 21.8757 50ZM5.20898 50C5.20898 49.1712 5.53822 48.3764 6.12428 47.7903C6.71033 47.2043 7.50518 46.875 8.33398 46.875H12.5007C13.3295 46.875 14.1243 47.2043 14.7104 47.7903C15.2964 48.3764 15.6257 49.1712 15.6257 50C15.6257 50.8288 15.2964 51.6237 14.7104 52.2097C14.1243 52.7958 13.3295 53.125 12.5007 53.125H8.33398C7.50518 53.125 6.71033 52.7958 6.12428 52.2097C5.53822 51.6237 5.20898 50.8288 5.20898 50ZM84.3757 50C84.3757 49.1712 84.7049 48.3764 85.2909 47.7903C85.877 47.2043 86.6719 46.875 87.5007 46.875H91.6673C92.4961 46.875 93.291 47.2043 93.877 47.7903C94.4631 48.3764 94.7923 49.1712 94.7923 50C94.7923 50.8288 94.4631 51.6237 93.877 52.2097C93.291 52.7958 92.4961 53.125 91.6673 53.125H87.5007C86.6719 53.125 85.877 52.7958 85.2909 52.2097C84.7049 51.6237 84.3757 50.8288 84.3757 50ZM75.6173 75.6167C76.2033 75.0315 76.9975 74.7028 77.8257 74.7028C78.6538 74.7028 79.4481 75.0315 80.034 75.6167L81.6715 77.2542C81.9785 77.5403 82.2248 77.8853 82.3956 78.2686C82.5664 78.6519 82.6582 79.0657 82.6656 79.4853C82.673 79.9049 82.5958 80.3217 82.4387 80.7108C82.2815 81.1 82.0476 81.4534 81.7508 81.7502C81.4541 82.0469 81.1006 82.2809 80.7115 82.438C80.3224 82.5952 79.9056 82.6724 79.486 82.665C79.0664 82.6576 78.6526 82.5657 78.2692 82.3949C77.8859 82.2241 77.5409 81.9779 77.2548 81.6708L75.6173 80.0333C75.0321 79.4474 74.7034 78.6531 74.7034 77.825C74.7034 76.9969 75.0321 76.2026 75.6173 75.6167ZM24.384 75.6167C24.9692 76.2026 25.2979 76.9969 25.2979 77.825C25.2979 78.6531 24.9692 79.4474 24.384 80.0333L22.7465 81.6708C22.4604 81.9779 22.1154 82.2241 21.7321 82.3949C21.3487 82.5657 20.9349 82.6576 20.5153 82.665C20.0957 82.6724 19.6789 82.5952 19.2898 82.438C18.9007 82.2809 18.5472 82.0469 18.2505 81.7502C17.9537 81.4534 17.7198 81.1 17.5626 80.7108C17.4055 80.3217 17.3283 79.9049 17.3357 79.4853C17.3431 79.0657 17.4349 78.6519 17.6057 78.2686C17.7765 77.8853 18.0228 77.5403 18.3298 77.2542L19.9632 75.6167C20.2534 75.3263 20.5979 75.0959 20.9772 74.9388C21.3565 74.7816 21.763 74.7007 22.1736 74.7007C22.5841 74.7007 22.9906 74.7816 23.3699 74.9388C23.7492 75.0959 24.0938 75.3263 24.384 75.6167ZM50.0007 84.375C50.8295 84.375 51.6243 84.7043 52.2104 85.2903C52.7964 85.8764 53.1257 86.6712 53.1257 87.5V91.6667C53.1257 92.4955 52.7964 93.2903 52.2104 93.8764C51.6243 94.4624 50.8295 94.7917 50.0007 94.7917C49.1719 94.7917 48.377 94.4624 47.7909 93.8764C47.2049 93.2903 46.8757 92.4955 46.8757 91.6667V87.5C46.8757 86.6712 47.2049 85.8764 47.7909 85.2903C48.377 84.7043 49.1719 84.375 50.0007 84.375Z" fill="#043915"/>
</svg>
