<svg width="100" height="100" viewBox="0 0 100 100" fill="none" xmlns="http://www.w3.org/2000/svg">
<rect width="100" height="100" fill="white"/>
<path d="M83.333 50H16.6663L8.33301 91.6667H91.6664L83.333 50ZM76.4997 58.3333L78.1663 66.6667H54.1663V58.3333H76.4997ZM45.833 58.3333V66.6667H21.833L23.4997 58.3333H45.833ZM20.1663 75H45.833V83.3334H18.4997L20.1663 75ZM54.1663 83.3334V75H79.833L81.4997 83.3334H54.1663ZM45.833 33.3333H54.1663V45.8333H45.833V33.3333ZM65.6663 30.0417L71.583 24.125L80.4163 32.9583L74.5413 38.875L65.6663 30.0417ZM19.6247 32.9583L28.458 24.125L34.333 30.0417L25.4997 38.875L19.6247 32.9583ZM12.4997 8.33334H24.9997V16.6667H12.4997V8.33334ZM74.9997 8.33334H87.4997V16.6667H74.9997V8.33334ZM49.9997 29.1667C61.4997 29.1667 70.833 19.8333 70.833 8.33334H62.4997C62.4997 15.2083 56.8747 20.8333 49.9997 20.8333C43.1247 20.8333 37.4997 15.2083 37.4997 8.33334H29.1663C29.1663 19.8333 38.4997 29.1667 49.9997 29.1667Z" fill="#043915"/>
</svg>
