<svg width="100" height="100" viewBox="0 0 100 100" fill="none" xmlns="http://www.w3.org/2000/svg">
<path d="M50 15.7083L46.875 19.2083C46.875 19.2083 41.5417 25.25 36.1667 33.0833C30.7917 40.9167 25 50.2917 25 59.2917C25 65.9221 27.6339 72.2809 32.3223 76.9693C37.0107 81.6578 43.3696 84.2917 50 84.2917C56.6304 84.2917 62.9893 81.6578 67.6777 76.9693C72.3661 72.2809 75 65.9221 75 59.2917C75 50.2917 69.2083 40.9167 63.8333 33.0833C58.4583 25.25 53.125 19.2083 53.125 19.2083L50 15.7083ZM50 28.75C51.8333 30.9167 53.5 32.7083 57 37.7917C62.0417 45.125 66.6667 54.4583 66.6667 59.2917C66.6667 68.5417 59.25 75.9583 50 75.9583C40.75 75.9583 33.3333 68.5417 33.3333 59.2917C33.3333 54.4583 37.9583 45.125 43 37.7917C46.5 32.7083 48.1667 30.9167 50 28.75Z" fill="#043915"/>
</svg>
