<svg width="100" height="100" viewBox="0 0 100 100" fill="none" xmlns="http://www.w3.org/2000/svg">
<path d="M48.4258 4.39689C47.3741 4.40548 46.3073 4.46193 45.226 4.56877C54.9233 7.49943 63.2196 13.6981 69.3016 21.4981C54.8172 7.46525 29.3016 5.11838 14.8543 22.726C21.0174 19.4238 27.9055 17.7104 34.8553 17.2836C16.5487 23.211 0.878757 44.1358 4.27192 67.0629C5.26567 57.6791 9.90903 49.5785 16.261 42.8592C8.78872 57.3678 9.96801 76.3377 24.1975 88.0125C19.2346 78.7504 17.7366 68.0115 19.21 57.8684C18.9561 78.3957 35.5151 98.9434 58.5815 96.6684C48.8838 93.7375 40.5881 87.5389 34.5061 79.7387C49.6864 92.5668 73.2092 92.7988 88.9534 78.5106C65.7756 87.2514 47.0213 82.6629 35.7809 73.0809C24.2172 65.1231 20.5219 49.4363 27.659 37.0744C28.9309 34.8687 30.5066 32.8529 32.3401 31.0861C32.8831 30.4651 33.4409 29.8746 34.0194 29.3139C34.4706 29.06 34.9221 28.8115 35.3739 28.567C40.2045 25.1149 46.0508 23.3326 51.9586 23.4834C56.3454 23.5953 60.7653 24.7713 64.8258 27.1158C73.4235 32.0797 78.2836 41.0569 78.4182 50.3272C78.5416 51.0192 78.6042 51.7207 78.6051 52.4236C78.6051 59.0408 73.2407 64.4049 66.6235 64.4049C60.0069 64.4049 54.6426 59.0406 54.6426 52.4236C54.6426 52.092 54.6588 51.7643 54.6852 51.4393C55.7563 55.1223 59.1539 57.8151 63.1821 57.8151C68.0702 57.8151 72.0327 53.8522 72.0327 48.9645C72.0327 44.1236 68.1454 40.1926 63.3225 40.1172C62.3434 39.9553 61.3526 39.8739 60.3602 39.8738C50.3618 39.8738 42.2567 47.9793 42.2567 57.9774C42.2567 67.9754 50.3622 76.0803 60.3602 76.0803C60.5621 76.0799 60.7639 76.0762 60.9657 76.0694C60.9329 76.0819 60.9006 76.0951 60.868 76.1074C61.6734 76.0704 62.477 76.0033 63.2774 75.9063C73.5489 75.7332 87.3719 70.8371 93.3731 61.9024C89.7983 63.5594 86.4071 64.7514 83.1215 65.1764C84.3869 63.7014 85.5289 62.125 86.536 60.4629C93.5959 51.7289 99.1674 38.4418 97.0407 27.6113C95.6354 31.4453 94.0426 34.8469 92.0362 37.6861C91.4079 28.6008 87.4885 19.6881 79.6104 13.2244C84.5725 22.4865 86.0706 33.2252 84.5971 43.3684C84.8393 23.8033 69.8075 4.21994 48.4252 4.3967L48.4258 4.39689Z" fill="#043915"/>
</svg>
