<svg width="100" height="100" viewBox="0 0 100 100" fill="none" xmlns="http://www.w3.org/2000/svg">
<rect width="100" height="100" fill="white"/>
<path d="M38.3327 38.3333L47.6035 23.0208L41.4577 12.8125C40.6243 11.4236 39.4271 10.7291 37.866 10.7291C36.3049 10.7291 35.1063 11.4236 34.2702 12.8125L24.0618 29.7916L38.3327 38.3333ZM78.6452 66.6666L69.3743 51.25L83.8535 42.9166L90.5202 54.0625C91.2841 55.243 91.7007 56.5625 91.7702 58.0208C91.8396 59.4791 91.5271 60.8333 90.8327 62.0833C90.1382 63.4722 89.1146 64.5833 87.7618 65.4166C86.4091 66.25 84.9327 66.6666 83.3327 66.6666H78.6452ZM66.666 95.8333L49.9993 79.1666L66.666 62.5V70.8333H86.4577L80.416 82.9166C79.6521 84.3055 78.6105 85.4166 77.291 86.25C75.9716 87.0833 74.5132 87.5 72.916 87.5H66.666V95.8333ZM26.3535 87.5C24.9646 87.5 23.6966 87.1361 22.5493 86.4083C21.4021 85.6805 20.5521 84.725 19.9993 83.5416C19.4438 82.4305 19.1841 81.268 19.2202 80.0541C19.2563 78.8403 19.5855 77.7111 20.2077 76.6666L23.7493 70.8333H41.666V87.5H26.3535ZM16.041 75.625L9.27018 62.0833C8.64518 60.8333 8.34935 59.4972 8.38268 58.075C8.41602 56.6528 8.81602 55.3153 9.58268 54.0625L11.2493 51.25L4.16602 46.9791L26.9785 41.25L32.7077 64.1666L25.5202 59.7916L16.041 75.625ZM72.291 40L49.4785 34.2708L56.666 30L43.6452 8.33331H58.3327C59.791 8.33331 61.1632 8.69859 62.4493 9.42915C63.7355 10.1597 64.7591 11.1486 65.5202 12.3958L70.9368 21.4583L78.0202 17.0833L72.291 40Z" fill="#043915"/>
</svg>
