<svg width="100" height="100" viewBox="0 0 100 100" fill="none" xmlns="http://www.w3.org/2000/svg">
<path d="M79.1667 33.3333V81.6667C79.1667 84.3188 78.1131 86.8624 76.2377 88.7377C74.3624 90.6131 71.8188 91.6667 69.1667 91.6667H30.8333C28.1812 91.6667 25.6376 90.6131 23.7623 88.7377C21.8869 86.8624 20.8333 84.3188 20.8333 81.6667V33.3333M66.6667 20.8333V13.3333C66.6667 10.5833 64.4167 8.33331 61.6667 8.33331H38.3333C35.5833 8.33331 33.3333 10.5833 33.3333 13.3333V20.8333M66.6667 20.8333H33.3333M66.6667 20.8333H87.5M33.3333 20.8333H12.5M50 45.8333V70.8333M62.5 45.8333V70.8333M37.5 45.8333V70.8333" stroke="#043915" stroke-width="5" stroke-miterlimit="10" stroke-linecap="round" stroke-linejoin="round"/>
</svg>
