<svg width="100" height="100" viewBox="0 0 100 100" fill="none" xmlns="http://www.w3.org/2000/svg">
<g clip-path="url(#clip0_215_762)">
<rect width="100" height="100" fill="white"/>
<path d="M79.1667 29.1667C76.8333 29.1667 74.625 29.625 72.5417 30.3333L60.25 6.25H45.8333V12.5H56.4167L60.0833 19.6667L50 42.2083L42.625 24.7917C43.75 24.375 44.75 23.25 44.75 21.875C44.75 20.1667 43.375 18.75 41.6667 18.75H33.3333C31.5833 18.75 30.1667 20.1667 30.1667 21.875C30.1667 23.5833 31.5833 25 33.3333 25H35.875L45.25 46.875H41.3333C39.8333 36.875 31.25 29.1667 20.8333 29.1667C9.33333 29.1667 0 38.5 0 50C0 61.5 9.33333 70.8333 20.8333 70.8333C31.25 70.8333 39.8333 63.125 41.3333 53.125H52.0833L63.7083 26.7917L67 33.1667C64.3236 35.0838 62.1418 37.6102 60.6348 40.5372C59.1278 43.4643 58.339 46.7078 58.3333 50C58.3333 61.5 67.6667 70.8333 79.1667 70.8333C90.6667 70.8333 100 61.5 100 50C100 38.5 90.6667 29.1667 79.1667 29.1667ZM20.8333 64.5833C12.7917 64.5833 6.25 58.0417 6.25 50C6.25 41.9583 12.7917 35.4167 20.8333 35.4167C27.7917 35.4167 33.625 40.3333 35.0417 46.875H16.6667V53.125H35.0417C34.334 56.3683 32.5396 59.2726 29.9555 61.3565C27.3715 63.4404 24.153 64.5789 20.8333 64.5833ZM79.1667 64.5833C71.125 64.5833 64.5833 58.0417 64.5833 50C64.5833 45.5 66.6667 41.5417 69.875 38.875L77.375 53.5417L82.875 50.5417L75.4167 35.9583C76.625 35.6667 77.875 35.4167 79.1667 35.4167C87.2083 35.4167 93.75 41.9583 93.75 50C93.75 58.0417 87.2083 64.5833 79.1667 64.5833ZM45.8333 83.3333H29.1667L54.1667 95.8333V87.5H70.8333L45.8333 75V83.3333Z" fill="#043915"/>
</g>
<defs>
<clipPath id="clip0_215_762">
<rect width="100" height="100" fill="white"/>
</clipPath>
</defs>
</svg>
