<svg width="100" height="100" viewBox="0 0 100 100" fill="none" xmlns="http://www.w3.org/2000/svg">
<path d="M29.1667 41.6666H62.5M25 58.3333H29.1667M62.5 58.3333H66.6667" stroke="#043915" stroke-width="4" stroke-linecap="round" stroke-linejoin="round"/>
<path d="M24.9997 75H8.33301M24.9997 75V85C24.9997 85.663 24.7363 86.2989 24.2674 86.7677C23.7986 87.2366 23.1627 87.5 22.4997 87.5H10.833C10.17 87.5 9.53408 87.2366 9.06524 86.7677C8.5964 86.2989 8.33301 85.663 8.33301 85V75M24.9997 75H54.1663M8.33301 75V47.5416C8.33386 46.4142 8.5635 45.2986 9.00801 44.2625L18.6705 21.7208C19.3123 20.2213 20.3801 18.9432 21.7414 18.0447C23.1027 17.1463 24.6978 16.6672 26.3288 16.6666H65.3372C66.9685 16.666 68.5641 17.1442 69.9262 18.0419C71.2883 18.9395 72.3569 20.2173 72.9997 21.7166L82.658 44.2583C83.1036 45.297 83.3333 46.4155 83.333 47.5458V52.0833" stroke="#043915" stroke-width="4" stroke-linecap="round"/>
<path d="M70.833 95.8333C70.833 95.8333 74.583 82.8417 83.333 75" stroke="#043915" stroke-width="4" stroke-linecap="round" stroke-linejoin="round"/>
<path d="M82.5084 89.2708L81.95 89.3208C78.5597 89.6369 75.1821 88.5989 72.5544 86.4334C69.9267 84.2679 68.2625 81.1507 67.925 77.7625C67.7585 76.0896 67.9244 74.4003 68.4132 72.7918C68.902 71.1833 69.7041 69.6874 70.7733 68.3901C71.8425 67.0928 73.1578 66.0197 74.6433 65.2327C76.1288 64.4456 77.7553 63.9601 79.4292 63.8042L91.8709 62.6375C92.2547 62.6015 92.6371 62.7189 92.9346 62.964C93.2321 63.2092 93.4204 63.5622 93.4584 63.9458L94.5209 74.6958C94.6949 76.4424 94.5217 78.2061 94.0113 79.8855C93.5008 81.5649 92.6633 83.1267 91.5467 84.481C90.4302 85.8353 89.0568 86.9554 87.5056 87.7767C85.9544 88.598 84.2561 89.1086 82.5084 89.2708Z" stroke="#043915" stroke-width="4" stroke-linecap="round" stroke-linejoin="round"/>
</svg>
