<svg width="100" height="100" viewBox="0 0 100 100" fill="none" xmlns="http://www.w3.org/2000/svg">
<path d="M43.75 25H39.5833C38.4327 25 37.5 25.9327 37.5 27.0833V31.25C37.5 32.4006 38.4327 33.3333 39.5833 33.3333H43.75C44.9006 33.3333 45.8333 32.4006 45.8333 31.25V27.0833C45.8333 25.9327 44.9006 25 43.75 25Z" fill="#043915"/>
<path d="M60.416 25H56.2493C55.0988 25 54.166 25.9327 54.166 27.0833V31.25C54.166 32.4006 55.0988 33.3333 56.2493 33.3333H60.416C61.5666 33.3333 62.4993 32.4006 62.4993 31.25V27.0833C62.4993 25.9327 61.5666 25 60.416 25Z" fill="#043915"/>
<path d="M43.75 39.5835H39.5833C38.4327 39.5835 37.5 40.5162 37.5 41.6668V45.8335C37.5 46.9841 38.4327 47.9168 39.5833 47.9168H43.75C44.9006 47.9168 45.8333 46.9841 45.8333 45.8335V41.6668C45.8333 40.5162 44.9006 39.5835 43.75 39.5835Z" fill="#043915"/>
<path d="M60.416 39.5835H56.2493C55.0988 39.5835 54.166 40.5162 54.166 41.6668V45.8335C54.166 46.9841 55.0988 47.9168 56.2493 47.9168H60.416C61.5666 47.9168 62.4993 46.9841 62.4993 45.8335V41.6668C62.4993 40.5162 61.5666 39.5835 60.416 39.5835Z" fill="#043915"/>
<path d="M43.75 54.1665H39.5833C38.4327 54.1665 37.5 55.0992 37.5 56.2498V60.4165C37.5 61.5671 38.4327 62.4998 39.5833 62.4998H43.75C44.9006 62.4998 45.8333 61.5671 45.8333 60.4165V56.2498C45.8333 55.0992 44.9006 54.1665 43.75 54.1665Z" fill="#043915"/>
<path d="M60.416 54.1665H56.2493C55.0988 54.1665 54.166 55.0992 54.166 56.2498V60.4165C54.166 61.5671 55.0988 62.4998 56.2493 62.4998H60.416C61.5666 62.4998 62.4993 61.5671 62.4993 60.4165V56.2498C62.4993 55.0992 61.5666 54.1665 60.416 54.1665Z" fill="#043915"/>
<path d="M76.0423 80.2082H73.959V16.6665C73.9482 15.8411 73.6155 15.0525 73.0318 14.4687C72.448 13.885 71.6594 13.5523 70.834 13.5415H29.1673C28.3419 13.5523 27.5533 13.885 26.9695 14.4687C26.3858 15.0525 26.0531 15.8411 26.0423 16.6665V80.2082H23.959C23.1302 80.2082 22.3353 80.5374 21.7493 81.1235C21.1632 81.7095 20.834 82.5044 20.834 83.3332C20.834 84.162 21.1632 84.9568 21.7493 85.5429C22.3353 86.1289 23.1302 86.4582 23.959 86.4582H76.0423C76.8711 86.4582 77.666 86.1289 78.252 85.5429C78.8381 84.9568 79.1673 84.162 79.1673 83.3332C79.1673 82.5044 78.8381 81.7095 78.252 81.1235C77.666 80.5374 76.8711 80.2082 76.0423 80.2082ZM67.709 80.2082H45.834V70.8332C45.834 70.2806 45.6145 69.7507 45.2238 69.36C44.8331 68.9693 44.3032 68.7498 43.7507 68.7498H39.584C39.0314 68.7498 38.5015 68.9693 38.1108 69.36C37.7201 69.7507 37.5007 70.2806 37.5007 70.8332V80.2082H32.2923V19.7915H67.709V80.2082Z" fill="#043915"/>
</svg>
