<svg width="100" height="100" viewBox="0 0 100 100" fill="none" xmlns="http://www.w3.org/2000/svg">
<rect width="100" height="100" fill="white"/>
<path d="M38.3337 38.3335L47.6045 23.021L41.4587 12.8127C40.6253 11.4238 39.4281 10.7293 37.867 10.7293C36.3059 10.7293 35.1073 11.4238 34.2712 12.8127L24.0628 29.7918L38.3337 38.3335ZM78.6462 66.6668L69.3753 51.2502L83.8545 42.9168L90.5212 54.0627C91.285 55.2432 91.7017 56.5627 91.7712 58.021C91.8406 59.4793 91.5281 60.8335 90.8336 62.0835C90.1392 63.4724 89.1156 64.5835 87.7628 65.4168C86.41 66.2502 84.9337 66.6668 83.3337 66.6668H78.6462ZM66.667 95.8335L50.0003 79.1668L66.667 62.5002V70.8335H86.4587L80.417 82.9168C79.6531 84.3057 78.6114 85.4168 77.292 86.2502C75.9725 87.0835 74.5142 87.5002 72.917 87.5002H66.667V95.8335ZM26.3545 87.5002C24.9656 87.5002 23.6975 87.1363 22.5503 86.4085C21.4031 85.6807 20.5531 84.7252 20.0003 83.5418C19.4448 82.4307 19.185 81.2682 19.2212 80.0543C19.2573 78.8404 19.5864 77.7113 20.2087 76.6668L23.7503 70.8335H41.667V87.5002H26.3545ZM16.042 75.6252L9.27116 62.0835C8.64616 60.8335 8.35033 59.4974 8.38366 58.0752C8.41699 56.6529 8.81699 55.3154 9.58366 54.0627L11.2503 51.2502L4.16699 46.9793L26.9795 41.2502L32.7087 64.1668L25.5212 59.7918L16.042 75.6252ZM72.292 40.0002L49.4795 34.271L56.667 30.0002L43.6462 8.3335H58.3337C59.792 8.3335 61.1642 8.69877 62.4503 9.42933C63.7364 10.1599 64.76 11.1488 65.5212 12.396L70.9378 21.4585L78.0212 17.0835L72.292 40.0002Z" fill="#043915"/>
</svg>
