<svg width="100" height="100" viewBox="0 0 100 100" fill="none" xmlns="http://www.w3.org/2000/svg">
<path d="M12.5 6.25H6.25V87.5C6.25 89.1576 6.90848 90.7473 8.08058 91.9194C9.25268 93.0915 10.8424 93.75 12.5 93.75H46.875V87.5H12.5V6.25ZM71.875 12.5V18.75H83.0813L59.375 42.4563L45.9594 29.0406C45.3734 28.4548 44.5786 28.1257 43.75 28.1257C42.9214 28.1257 42.1266 28.4548 41.5406 29.0406L18.75 51.8313L23.1688 56.25L43.75 35.6687L57.1656 49.0844C57.7516 49.6702 58.5464 49.9993 59.375 49.9993C60.2036 49.9993 60.9984 49.6702 61.5844 49.0844L87.5 23.1688V34.375H93.75V12.5H71.875ZM70.25 65.1969C68.0461 63.4471 65.314 62.4963 62.5 62.5H53.125V71.875C53.125 78.7688 58.7313 84.375 65.625 84.375H68.75V93.75H75V84.375H78.125C86.7406 84.375 93.75 77.3656 93.75 68.75V56.25H84.375C81.4157 56.2539 78.5181 57.0965 76.0182 58.68C73.5182 60.2635 71.5182 62.5231 70.25 65.1969ZM68.75 78.125H65.625C62.1781 78.125 59.375 75.3219 59.375 71.875V68.75H62.5C65.9469 68.75 68.75 71.5531 68.75 75V78.125ZM87.5 68.75C87.5 73.9187 83.2937 78.125 78.125 78.125H75V71.875C75 66.7062 79.2063 62.5 84.375 62.5H87.5V68.75Z" fill="#043915"/>
</svg>
