<svg width="120" height="120" viewBox="0 0 120 120" fill="none" xmlns="http://www.w3.org/2000/svg">
<path d="M40.6458 55.6548L60.6408 30.9548C62.2058 29.0198 65.1358 30.2248 65.1358 32.7998V51.9198C65.1358 53.4598 66.2858 54.7098 67.7058 54.7098H77.4258C79.6358 54.7098 80.8158 57.5398 79.3558 59.3448L59.3608 84.0448C57.7958 85.9798 54.8658 84.7748 54.8658 82.2048V63.0848C54.8658 61.5398 53.7158 60.2898 52.2958 60.2898H42.5758C40.3708 60.2898 39.1908 57.4598 40.6508 55.6548" stroke="#043915" stroke-width="4" stroke-linecap="round" stroke-linejoin="round"/>
<path d="M105 55.92V41.4C105 33.2 105 29.1 102.98 26.425C100.96 23.75 96.39 22.455 87.255 19.855C81.7452 18.2725 76.3508 16.3129 71.11 13.99C65.115 11.33 62.12 10 60 10C57.88 10 54.885 11.33 48.89 13.99C44.49 15.94 38.99 18.08 32.745 19.855C23.61 22.455 19.045 23.755 17.02 26.425C15 29.1 15 33.2 15 41.4V55.92C15 84.045 40.315 100.92 52.97 107.6C56.005 109.2 57.52 110 60 110C62.48 110 63.995 109.2 67.03 107.6C79.685 100.92 105 84.045 105 55.92Z" stroke="#043915" stroke-width="4" stroke-linecap="round"/>
</svg>
