<svg width="80" height="80" viewBox="0 0 80 80" fill="none" xmlns="http://www.w3.org/2000/svg">
<rect width="80" height="80" rx="30" fill="url(#paint0_linear_302_41)"/>
<path d="M22.8575 44.9999C20.9817 41.928 19.9927 38.3968 20 34.7975C20 23.8625 28.955 15 40 15C51.045 15 60 23.8625 60 34.7975C60.0073 38.3968 59.0183 41.928 57.1425 44.9999" stroke="white" stroke-width="1.5" stroke-linecap="round"/>
<path d="M47.4999 57.5L47.1749 59.1175C46.8249 60.885 46.6474 61.7675 46.2499 62.4675C45.6374 63.5464 44.6457 64.359 43.4674 64.7475C42.7049 65 41.7999 65 39.9999 65C38.1999 65 37.2949 65 36.5324 64.75C35.3538 64.3609 34.362 63.5473 33.7499 62.4675C33.3524 61.7675 33.1749 60.885 32.8249 59.1175L32.4999 57.5M28.4574 52.745C28.2274 52.055 28.1124 51.7075 28.1249 51.4275C28.1391 51.138 28.2368 50.8588 28.4063 50.6236C28.5758 50.3885 28.8098 50.2075 29.0799 50.1025C29.3399 50 29.7049 50 30.4299 50H49.5699C50.2974 50 50.6599 50 50.9199 50.1C51.1905 50.2051 51.4247 50.3865 51.5942 50.6222C51.7637 50.8578 51.8612 51.1375 51.8749 51.4275C51.8874 51.7075 51.7724 52.0525 51.5424 52.745C51.1174 54.0225 50.9049 54.6625 50.5774 55.18C49.8924 56.2615 48.8187 57.0391 47.5774 57.3525C46.9824 57.5 46.3124 57.5 44.9699 57.5H35.0299C33.6874 57.5 33.0149 57.5 32.4224 57.35C31.1816 57.0372 30.1079 56.2606 29.4224 55.18C29.0949 54.6625 28.8824 54.0225 28.4574 52.745Z" stroke="white" stroke-width="1.5"/>
<path d="M30.625 34.375L36.25 40V50M49.375 34.375L43.75 40V50M30.625 36.25C31.1223 36.25 31.5992 36.0524 31.9508 35.7008C32.3024 35.3492 32.5 34.8723 32.5 34.375C32.5 33.8777 32.3024 33.4008 31.9508 33.0492C31.5992 32.6975 31.1223 32.5 30.625 32.5C30.1277 32.5 29.6508 32.6975 29.2992 33.0492C28.9475 33.4008 28.75 33.8777 28.75 34.375C28.75 34.8723 28.9475 35.3492 29.2992 35.7008C29.6508 36.0524 30.1277 36.25 30.625 36.25ZM49.375 36.25C48.8777 36.25 48.4008 36.0524 48.0491 35.7008C47.6975 35.3492 47.5 34.8723 47.5 34.375C47.5 33.8777 47.6975 33.4008 48.0491 33.0492C48.4008 32.6975 48.8777 32.5 49.375 32.5C49.8722 32.5 50.3492 32.6975 50.7008 33.0492C51.0524 33.4008 51.25 33.8777 51.25 34.375C51.25 34.8723 51.0524 35.3492 50.7008 35.7008C50.3492 36.0524 49.8722 36.25 49.375 36.25Z" stroke="white" stroke-width="1.5" stroke-linecap="round" stroke-linejoin="round"/>
<defs>
<linearGradient id="paint0_linear_302_41" x1="40" y1="0" x2="40" y2="80" gradientUnits="userSpaceOnUse">
<stop stop-color="#043915"/>
<stop offset="0.33" stop-color="#4C763B"/>
<stop offset="0.67" stop-color="#819B52"/>
<stop offset="1" stop-color="#FFFD8F"/>
</linearGradient>
</defs>
</svg>
