<svg width="120" height="120" viewBox="0 0 120 120" fill="none" xmlns="http://www.w3.org/2000/svg">
<g clip-path="url(#clip0_210_305)">
<path fill-rule="evenodd" clip-rule="evenodd" d="M25.0165 82.0399C25.5931 80.3032 25.9265 78.5216 26.0165 76.6949C26.0165 73.9299 25.4015 71.1999 24.2165 68.7049C24.1098 68.2687 23.8349 67.8924 23.4517 67.6582C23.0686 67.424 22.6083 67.3509 22.1715 67.4549C21.741 67.5728 21.3718 67.8507 21.1395 68.2317C20.9071 68.6128 20.8291 69.0682 20.9215 69.5049C21.0215 70.6182 21.0215 71.7332 20.9215 72.8499C20.6815 74.1032 20.3648 75.3349 19.9715 76.5449C19.9715 77.7449 19.4715 78.9949 19.1215 80.1949C18.5579 82.4296 18.2724 84.7253 18.2715 87.0299C18.3315 88.3299 18.7665 89.5799 19.5215 90.6299C19.791 91.0621 20.2153 91.3751 20.7077 91.5052C21.2002 91.6353 21.7237 91.5726 22.1715 91.3299C22.6049 91.061 22.9157 90.6329 23.0372 90.1375C23.1587 89.6422 23.0812 89.1189 22.8215 88.6799C22.5215 87.9799 22.8215 87.3299 22.8215 86.5799C23.4548 85.0199 24.1882 83.5066 25.0215 82.0399M36.6515 93.1249H34.8515C28.8615 93.1249 28.8115 92.6749 28.1665 93.7749C26.9665 95.9749 32.3615 98.7699 34.4565 99.4199C35.6465 99.7199 36.8815 99.8099 38.1065 99.6699C44.9915 99.0199 44.9915 97.3199 44.9915 96.6699C44.9915 96.0199 45.6415 94.6199 36.6515 93.1249ZM116.406 85.6349C115.727 81.0595 113.658 76.8035 110.478 73.444C107.299 70.0846 103.163 67.7843 98.6315 66.8549C94.1903 66.1171 89.6501 66.2188 85.2465 67.1549C80.7073 67.9008 76.4107 69.7157 72.7115 72.4499C67.0112 77.5645 63.2673 84.5026 62.1215 92.0749C61.3746 95.8464 61.5429 99.7419 62.6121 103.435C63.6813 107.128 65.6202 110.511 68.2665 113.3C70.3065 115.22 72.7165 116.7 75.3565 117.65C82.5764 120.284 90.4153 120.717 97.8815 118.895C103.009 117.622 107.563 114.668 110.816 110.505C113.371 106.948 115.183 102.912 116.143 98.6389C117.103 94.366 117.193 89.9433 116.406 85.6349ZM67.4165 93.0249C68.586 86.8713 71.8512 81.3128 76.6565 77.2949C79.6337 75.2368 83.0581 73.9171 86.6465 73.4449C90.21 72.6879 93.8816 72.5862 97.4815 73.1449C98.4948 73.4116 99.4781 73.7616 100.431 74.1949C97.0815 77.6449 93.6815 81.0399 90.4415 84.8349C88.7915 86.8349 87.2415 88.9299 85.7415 91.0799C84.2514 93.1986 82.8534 95.3806 81.5515 97.6199C78.7515 102.615 76.5515 107.36 74.1115 112.25C73.0873 111.736 72.1301 111.098 71.2615 110.35C69.2922 107.974 67.9165 105.164 67.2479 102.151C66.5793 99.139 66.6371 96.0107 67.4165 93.0249ZM106.816 107.56C104.375 110.985 100.862 113.497 96.8315 114.7C90.4674 116.598 83.6645 116.423 77.4065 114.2C80.9015 109.205 84.6965 104.21 88.3915 98.8699C90.3415 96.1199 92.2415 93.3249 94.1365 90.5299C96.0365 87.7299 97.8315 84.8849 99.7765 82.1399C101.176 80.1399 102.676 78.1899 104.126 76.2449C107.524 78.8774 109.877 82.6301 110.766 86.8349C111.533 90.3777 111.578 94.0385 110.9 97.5992C110.221 101.16 108.832 104.547 106.816 107.56Z" fill="#043915"/>
<path fill-rule="evenodd" clip-rule="evenodd" d="M85.7958 44.0348C87.0608 42.9098 87.8758 41.3698 88.0958 39.6848C88.4354 37.1379 88.5192 34.5634 88.3458 31.9998C88.3458 27.6498 87.9958 23.3598 87.4958 19.0648C86.9958 14.7698 86.2958 11.5248 85.4458 7.82478C89.3161 12.878 92.3358 18.5289 94.3858 24.5548C95.9582 29.0256 97.2261 33.5977 98.1808 38.2398C99.6308 45.4448 100.451 52.7648 100.631 60.1148C100.711 60.5658 100.947 60.9743 101.298 61.2685C101.649 61.5628 102.093 61.724 102.551 61.724C103.009 61.724 103.452 61.5628 103.803 61.2685C104.155 60.9743 104.391 60.5658 104.471 60.1148C105.195 52.7575 105.195 45.347 104.471 37.9898C104.057 34.8084 103.439 31.657 102.621 28.5548C101.756 25.4184 100.587 22.374 99.1308 19.4648C97.7308 16.6648 86.4958 -1.61022 82.7458 2.08477C81.1558 2.63478 79.6558 3.42478 78.3058 4.43478C76.0858 6.18478 74.2508 8.38478 72.9058 10.8748C71.469 13.8939 70.4786 17.1058 69.9658 20.4098C69.6082 25.242 69.7759 30.0987 70.4658 34.8948C70.4915 35.4068 70.7128 35.8895 71.084 36.2431C71.4553 36.5966 71.9482 36.7941 72.4608 36.7948C72.7104 36.7883 72.9562 36.7327 73.1842 36.6312C73.4123 36.5297 73.6181 36.3842 73.7899 36.2031C73.9617 36.022 74.0961 35.8088 74.1855 35.5758C74.2749 35.3427 74.3175 35.0943 74.3108 34.8448C74.5187 31.0605 74.9528 27.2921 75.6108 23.5598C75.8608 22.1098 76.2558 20.7598 76.6058 19.3098C77.0725 17.2431 77.7225 15.2298 78.5558 13.2698C79.1408 11.2848 80.1458 9.44477 81.5008 7.87477C82.2408 11.7281 82.7575 15.6081 83.0508 19.5148C83.3008 23.6598 83.3508 27.8548 83.0508 31.9998C83.0508 32.8998 83.0508 34.9448 82.8008 36.9898C82.8008 38.0898 82.8008 39.2398 82.2008 39.6398C79.9807 40.9849 77.5199 41.885 74.9558 42.2898C70.5172 43.0047 66.0178 43.271 61.5258 43.0848C58.5758 43.0848 55.6258 42.7848 52.7358 42.4848C49.8358 42.1848 46.8908 41.8348 43.9458 41.3348L37.9508 40.4348C37.9508 40.4348 37.4008 40.1348 37.3008 39.7848C37.0913 39.0326 36.9409 38.2653 36.8508 37.4898C36.7399 36.2773 36.7399 35.0572 36.8508 33.8448C36.9758 28.9548 37.4558 24.0798 38.3008 19.2648C38.8708 16.1781 39.6542 13.1481 40.6508 10.1748C40.6508 10.6248 41.0508 11.0748 41.2008 11.5248C41.3508 11.9748 41.9508 13.7748 42.3008 14.8698L43.8458 19.8648C45.2192 24.2581 46.3342 28.7181 47.1908 33.2448C47.2306 33.748 47.4687 34.2149 47.8527 34.5426C48.2367 34.8703 48.7351 35.0321 49.2383 34.9923C49.7416 34.9525 50.2084 34.7144 50.5361 34.3304C50.8639 33.9465 51.0256 33.448 50.9858 32.9448C51.1258 28.8948 50.9408 24.8348 50.4358 20.8098C50.1985 19.0713 49.8308 17.3531 49.3358 15.6698C48.7986 13.9542 48.1299 12.2826 47.3358 10.6698C45.3889 6.88554 42.7284 3.51361 39.5008 0.739775C39.3411 0.540879 39.1334 0.385992 38.8972 0.289754C38.6609 0.193516 38.4041 0.159105 38.1508 0.189775C37.9289 0.0672139 37.6794 0.00292969 37.4258 0.00292969C37.1723 0.00292969 36.9228 0.0672139 36.7008 0.189775C29.8238 5.07044 24.2784 11.5956 20.5708 19.1698C16.8794 26.5473 14.2083 34.3925 12.6308 42.4898L10.5308 57.0748L8.13584 68.5598C6.03584 76.1948 2.50084 85.4848 3.15084 93.5248C3.29702 96.7406 4.25786 99.8665 5.94318 102.609C7.62851 105.352 9.98305 107.621 12.7858 109.205C13.9125 109.868 15.0792 110.451 16.2858 110.955C17.4792 111.455 18.7092 111.855 19.9758 112.155C22.0358 112.688 24.1175 113.105 26.2208 113.405C28.3375 113.718 30.4675 113.883 32.6108 113.9C35.5042 113.95 38.3842 113.8 41.2508 113.45C44.1142 113.14 46.9442 112.656 49.7408 112C49.9873 111.952 50.2219 111.856 50.431 111.717C50.64 111.578 50.8195 111.399 50.959 111.19C51.0985 110.981 51.1952 110.747 51.2436 110.501C51.292 110.254 51.291 110.001 51.2408 109.755C51.1327 109.252 50.8304 108.812 50.3996 108.531C49.9689 108.25 49.4445 108.151 48.9408 108.255C46.2875 108.768 43.6075 109.118 40.9008 109.305C38.2075 109.478 35.5108 109.478 32.8108 109.305C30.8677 109.197 28.9337 108.963 27.0208 108.605C25.1208 108.255 23.2208 107.755 21.3258 107.205C20.3106 106.93 19.323 106.562 18.3758 106.105C17.4234 105.663 16.5072 105.146 15.6358 104.56C13.6801 103.344 12.0635 101.654 10.9366 99.646C9.80976 97.6379 9.2092 95.3774 9.19085 93.0748C9.68584 85.2098 11.3708 77.4648 14.1858 70.1048L16.6358 58.0648L18.2808 43.3848C19.4088 35.7346 21.5755 28.2741 24.7208 21.2098C27.6795 14.61 32.1215 8.78211 37.7008 4.17978L38.6508 5.77977C36.6258 9.78977 35.0508 14.0098 33.9558 18.3648C32.7902 23.2992 31.9385 28.3026 31.4058 33.3448C31.1176 36.0105 31.2356 38.7045 31.7558 41.3348C31.9662 42.2521 32.3634 43.1162 32.9226 43.8733C33.4817 44.6303 34.1909 45.264 35.0058 45.7348C35.8858 46.1548 36.8025 46.4714 37.7558 46.6848C39.4508 47.0848 41.3958 47.2298 42.7458 47.5298C45.7958 48.0798 48.8908 48.5798 51.9858 48.8798C55.0858 49.1798 58.1258 49.4298 61.3258 49.5298C66.3508 49.6848 71.3758 49.2698 76.3058 48.2798C79.7321 47.5439 82.9653 46.0959 85.7958 44.0298" fill="#043915"/>
</g>
<defs>
<clipPath id="clip0_210_305">
<rect width="120" height="120" fill="white"/>
</clipPath>
</defs>
</svg>
