<svg width="120" height="120" viewBox="0 0 120 120" fill="none" xmlns="http://www.w3.org/2000/svg">
<g clip-path="url(#clip0_210_309)">
<path d="M95 35C92.2 35 89.55 35.55 87.05 36.4L72.3 7.5H55V15H67.7L72.1 23.6L60 50.65L51.15 29.75C52.5 29.25 53.7 27.9 53.7 26.25C53.7 24.2 52.05 22.5 50 22.5H40C37.9 22.5 36.2 24.2 36.2 26.25C36.2 28.3 37.9 30 40 30H43.05L54.3 56.25H49.6C47.8 44.25 37.5 35 25 35C11.2 35 0 46.2 0 60C0 73.8 11.2 85 25 85C37.5 85 47.8 75.75 49.6 63.75H62.5L76.45 32.15L80.4 39.8C77.1883 42.1005 74.5702 45.1323 72.7618 48.6447C70.9534 52.1571 70.0068 56.0494 70 60C70 73.8 81.2 85 95 85C108.8 85 120 73.8 120 60C120 46.2 108.8 35 95 35ZM25 77.5C15.35 77.5 7.5 69.65 7.5 60C7.5 50.35 15.35 42.5 25 42.5C33.35 42.5 40.35 48.4 42.05 56.25H20V63.75H42.05C41.2009 67.642 39.0475 71.1271 35.9466 73.6278C32.8457 76.1285 28.9836 77.4947 25 77.5ZM95 77.5C85.35 77.5 77.5 69.65 77.5 60C77.5 54.6 80 49.85 83.85 46.65L92.85 64.25L99.45 60.65L90.5 43.15C91.95 42.8 93.45 42.5 95 42.5C104.65 42.5 112.5 50.35 112.5 60C112.5 69.65 104.65 77.5 95 77.5ZM55 100H35L65 115V105H85L55 90V100Z" fill="#043915"/>
</g>
<defs>
<clipPath id="clip0_210_309">
<rect width="120" height="120" fill="white"/>
</clipPath>
</defs>
</svg>
