<svg width="130" height="130" viewBox="0 0 130 130" fill="none" xmlns="http://www.w3.org/2000/svg">
<path d="M71.5297 0L63.8592 11.8028C53.9603 3.79614 39.9771 1.31408 29.1104 3.53979C14.322 6.56769 1.90923 19.9277 2.52594 39.2391C3.17606 59.5939 17.383 74.4632 31.0099 86.7141C37.8234 92.8389 44.8161 98.4146 49.9996 103.425C60.2334 112.675 65.1912 128.508 65.1912 128.508C65.1912 128.508 71.8537 112.349 80.3829 104.183C85.7304 99.1052 92.7867 93.4268 99.7516 87.0941C113.682 74.4274 128.104 58.8425 127.476 38.86C127.476 5.64601 94.5632 5.99768 81.886 17.5439C87.1333 14.7669 92.781 14.1774 97.8532 15.3133C107.167 17.3997 114.878 25.0718 115.323 39.2399C115.747 52.7962 104.708 65.8768 91.396 77.9791C84.7406 84.0295 77.8853 89.5055 72.0272 95.0684C68.9162 98.0241 67.4813 100.639 65.191 103.703C62.8998 100.449 61.4806 97.7104 58.355 94.6891C43.3257 77.5924 19.4471 59.1467 18.4929 38.8598C18.2974 21.9633 38.0732 17.514 48.7029 24.9993L36.2318 31.8584C54.533 34.8847 70.1078 42.0039 86.6326 52.3851L71.5295 0H71.5297Z" fill="#043915"/>
</svg>
