<svg width="80" height="80" viewBox="0 0 80 80" fill="none" xmlns="http://www.w3.org/2000/svg">
<rect width="80" height="80" rx="30" fill="url(#paint0_linear_174_443)"/>
<path d="M40 63.3335C35.4394 60.7005 30.2661 59.3143 25 59.3143C19.7339 59.3143 14.5606 60.7005 10 63.3335V20.0002C14.5606 17.3671 19.7339 15.981 25 15.981C30.2661 15.981 35.4394 17.3671 40 20.0002M40 63.3335C44.5606 60.7005 49.7339 59.3143 55 59.3143C60.2661 59.3143 65.4394 60.7005 70 63.3335V20.0002C65.4394 17.3671 60.2661 15.981 55 15.981C49.7339 15.981 44.5606 17.3671 40 20.0002M40 63.3335V20.0002" stroke="white" stroke-width="2" stroke-linecap="round" stroke-linejoin="round"/>
<defs>
<linearGradient id="paint0_linear_174_443" x1="40" y1="0" x2="40" y2="80" gradientUnits="userSpaceOnUse">
<stop stop-color="#043915"/>
<stop offset="0.33" stop-color="#4C763B"/>
<stop offset="0.67" stop-color="#819B52"/>
<stop offset="1" stop-color="#FFFD8F"/>
</linearGradient>
</defs>
</svg>
