<svg width="120" height="120" viewBox="0 0 120 120" fill="none" xmlns="http://www.w3.org/2000/svg">
<path d="M37.5 35C43.0228 35 47.5 30.5228 47.5 25C47.5 19.4772 43.0228 15 37.5 15C31.9772 15 27.5 19.4772 27.5 25C27.5 30.5228 31.9772 35 37.5 35Z" fill="#043915" stroke="#043915" stroke-width="2" stroke-linecap="round" stroke-linejoin="round"/>
<path d="M82.5 35C88.0228 35 92.5 30.5228 92.5 25C92.5 19.4772 88.0228 15 82.5 15C76.9772 15 72.5 19.4772 72.5 25C72.5 30.5228 76.9772 35 82.5 35Z" fill="#043915" stroke="#043915" stroke-width="2" stroke-linecap="round" stroke-linejoin="round"/>
<path d="M25 50H50L45 105H30L25 50ZM70 50H95L100 77.5H92.5L90 105H75L72.5 77.5H65L70 50Z" fill="#043915" stroke="#043915" stroke-width="2" stroke-linecap="round" stroke-linejoin="round"/>
</svg>
