<svg width="100" height="100" viewBox="0 0 100 100" fill="none" xmlns="http://www.w3.org/2000/svg">
<path d="M71.875 21.875H84.375V34.375H71.875V21.875ZM71.875 40.625H84.375V53.125H71.875V40.625ZM53.125 21.875H65.625V34.375H53.125V21.875ZM53.125 40.625H65.625V53.125H53.125V40.625Z" fill="#043915"/>
<path d="M45.3125 81.25C47.9013 81.25 50 79.1513 50 76.5625C50 73.9737 47.9013 71.875 45.3125 71.875C42.7237 71.875 40.625 73.9737 40.625 76.5625C40.625 79.1513 42.7237 81.25 45.3125 81.25Z" fill="#043915"/>
<path d="M65.625 93.75H25C23.3424 93.75 21.7527 93.0915 20.5806 91.9194C19.4085 90.7473 18.75 89.1576 18.75 87.5V12.5C18.75 10.8424 19.4085 9.25268 20.5806 8.08058C21.7527 6.90848 23.3424 6.25 25 6.25H65.625V12.5H25V87.5H65.625V62.5H71.875V87.5C71.875 89.1576 71.2165 90.7473 70.0444 91.9194C68.8723 93.0915 67.2826 93.75 65.625 93.75Z" fill="#043915"/>
</svg>
