<svg width="130" height="130" viewBox="0 0 130 130" fill="none" xmlns="http://www.w3.org/2000/svg">
<path d="M122.161 50.7097C123.911 50.7099 125.601 51.3524 126.908 52.5154C128.216 53.6783 129.052 55.2808 129.256 57.0189L129.307 57.8549V93.581C129.307 100.914 126.488 107.966 121.434 113.279C116.381 118.592 109.478 121.76 102.155 122.126L100.726 122.162H7.83778C6.50532 122.162 5.19929 121.79 4.06721 121.087C2.93514 120.385 2.02212 119.379 1.43128 118.185C0.840444 116.991 0.595334 115.655 0.723633 114.329C0.851932 113.002 1.34853 111.738 2.15733 110.679L2.78611 109.965L24.2218 88.5293C25.5076 87.2478 27.233 86.5038 29.0475 86.4484C30.8621 86.393 32.6296 87.0304 33.9913 88.231C35.3529 89.4316 36.2065 91.1055 36.3786 92.9127C36.5508 94.7199 36.0286 96.5249 34.9182 97.961L34.3251 98.6327L25.0863 107.871H100.726C104.331 107.873 107.803 106.511 110.447 104.059C113.091 101.608 114.71 98.2479 114.98 94.6528L115.016 93.581V57.8549C115.016 55.9599 115.769 54.1425 117.109 52.8025C118.449 51.4625 120.266 50.7097 122.161 50.7097ZM122.161 7.83838C123.494 7.83798 124.8 8.21018 125.932 8.91293C127.064 9.61568 127.977 10.621 128.568 11.8153C129.159 13.0096 129.404 14.3453 129.275 15.6716C129.147 16.9979 128.651 18.2618 127.842 19.3207L127.213 20.0353L105.777 41.4709C104.491 42.7524 102.766 43.4964 100.952 43.5518C99.137 43.6072 97.3694 42.9699 96.0078 41.7692C94.6462 40.5686 93.7926 38.8947 93.6204 37.0875C93.4483 35.2803 93.9704 33.4754 95.0809 32.0392L95.6739 31.3676L104.913 22.1288H29.2734C25.6694 22.1295 22.1986 23.4919 19.5565 25.9432C16.9145 28.3945 15.2962 31.7535 15.0259 35.3475L14.983 36.4193V72.1453C14.981 73.9665 14.2836 75.7182 13.0334 77.0424C11.7832 78.3667 10.0746 79.1636 8.25653 79.2704C6.43849 79.3771 4.6483 78.7856 3.25175 77.6167C1.85519 76.4478 0.957677 74.7897 0.74258 72.9813L0.692564 72.1453V36.4193C0.692558 29.0865 3.51089 22.0343 8.56462 16.7212C13.6184 11.4082 20.5208 8.24074 27.8444 7.87411L29.2734 7.83838H122.161Z" fill="#043915"/>
</svg>
