<svg width="100" height="100" viewBox="0 0 100 100" fill="none" xmlns="http://www.w3.org/2000/svg">
<path d="M50 4.19995C48.3333 4.19995 46.6666 4.99995 46.6666 6.66662L46.6 8.46662H21.8666C21.4707 8.44792 21.0829 8.58328 20.7846 8.84429C20.4863 9.10531 20.3007 9.4717 20.2666 9.86662C21.1333 22.4 21.8666 35.2666 22.5333 46.4666C22.5333 47.3333 23.2666 48 24.1333 48H45.1333L43.3333 96.6666C43.3333 100 56.6666 100 56.6666 96.6666C55.4666 66.6666 55.1333 58.1333 54.8 48H75.7333C76.4666 48 77.1333 47.4666 77.2666 46.7333C77.9333 34.2666 78.7333 21.3333 79.4 10.0666C79.4 9.19995 78.6666 8.53328 77.8 8.53328H77.7333L53.4 8.46662L53.3333 6.66662C53.3333 4.99995 51.6666 4.19995 50 4.19995ZM32.4 13.2666C35.7333 13.2666 38.4666 16 38.4666 19.3333C38.4666 22.6666 35.7333 25.4 32.4 25.4C29.0666 25.4 26.3333 22.6666 26.3333 19.3333C26.3333 16 29.0666 13.2666 32.4 13.2666ZM50 13.2666C50.8 13.2666 51.6 13.4666 52.2666 13.7333C52.3333 13.7333 52.3333 13.8 52.4 13.8C54.5333 14.7333 56.0666 16.8666 56.0666 19.3333C56.0604 20.4952 55.7168 21.6303 55.0778 22.6008C54.4387 23.5712 53.5316 24.3352 52.4666 24.8C52.4 24.8 52.3333 24.8666 52.2 24.9333C51.4982 25.2033 50.7519 25.339 50 25.3333C49.2 25.3333 48.4 25.2 47.7333 24.8666C47.6666 24.8666 47.6 24.8666 47.6 24.8C46.5225 24.3452 45.6015 23.5855 44.9501 22.6143C44.2986 21.6431 43.9452 20.5027 43.9333 19.3333C43.9333 16.8666 45.4 14.7333 47.5333 13.8C47.6 13.7333 47.7333 13.7333 47.8 13.6666C48.4666 13.4666 49.2 13.2666 50 13.2666ZM67.6666 13.2666C71 13.2666 73.7333 16 73.7333 19.3333C73.7333 22.6666 71 25.4 67.6666 25.4C66.1069 25.3268 64.6352 24.6557 63.5572 23.526C62.4792 22.3963 61.8778 20.8948 61.8778 19.3333C61.8778 17.7718 62.4792 16.2703 63.5572 15.1406C64.6352 14.0109 66.1069 13.3398 67.6666 13.2666ZM32.7333 31.2666C36.0666 31.2666 38.8 33.9333 38.8 37.2666C38.8 40.6 36.0666 43.3333 32.7333 43.3333C29.4 43.3333 26.6666 40.6 26.6666 37.2666C26.6666 33.9333 29.4 31.2666 32.7333 31.2666ZM50 31.2666C50.8 31.2666 51.6 31.4666 52.2666 31.7333C52.3333 31.7333 52.3333 31.8 52.4 31.8C54.5333 32.7333 56.0666 34.8 56.0666 37.2666C56.0666 38.9333 55.4 40.4 54.3333 41.4666C54.2666 41.5333 54.2 41.5333 54.2 41.5999C53.6883 42.1187 53.0757 42.5271 52.4 42.8C52.3333 42.8 52.3333 42.8666 52.2666 42.8666C51.6 43.1333 50.8 43.3333 50 43.3333C49.2 43.3333 48.4 43.1333 47.7333 42.8666H47.6666L47.6 42.8C46.9243 42.5271 46.3117 42.1187 45.8 41.5999L45.6666 41.4666C45.113 40.917 44.6745 40.2624 44.3769 39.5412C44.0792 38.8201 43.9285 38.0468 43.9333 37.2666C43.9333 35.6666 44.6 34.1333 45.6666 33.0666L45.7333 33C46.245 32.4812 46.8576 32.0728 47.5333 31.8C47.5333 31.8 47.6 31.8 47.6 31.7333C48.4 31.4 49.2 31.2666 50 31.2666ZM67.2666 31.2666C70.6 31.2666 73.3333 34 73.3333 37.3333C73.3333 40.6666 70.6 43.3333 67.2666 43.3333C63.9333 43.3333 61.2 40.6 61.2 37.2666C61.2 33.9333 63.9333 31.2666 67.2666 31.2666ZM22.9333 51.8666C22.7141 51.8868 22.5011 51.9503 22.3066 52.0533C22.1121 52.1562 21.9399 52.2967 21.8 52.4666L12.0666 63C11.8805 63.1489 11.7285 63.3361 11.6209 63.5488C11.5133 63.7615 11.4526 63.9948 11.4428 64.233C11.433 64.4711 11.4745 64.7086 11.5644 64.9294C11.6542 65.1502 11.7904 65.3492 11.9637 65.5129C12.137 65.6765 12.3434 65.8011 12.569 65.8783C12.7945 65.9554 13.034 65.9832 13.2713 65.9598C13.5085 65.9365 13.738 65.8625 13.9442 65.743C14.1504 65.6234 14.3286 65.4609 14.4666 65.2666L24.2 54.7333C24.4474 54.4965 24.6158 54.1892 24.6823 53.8532C24.7489 53.5173 24.7103 53.169 24.5719 52.8558C24.4335 52.5425 24.2019 52.2795 23.9088 52.1025C23.6156 51.9255 23.275 51.8432 22.9333 51.8666Z" fill="#043915"/>
<path d="M32.9991 54.5999C32.7402 54.6251 32.4908 54.7106 32.2708 54.8495C32.0509 54.9884 31.8665 55.1769 31.7324 55.3999L21.3324 73.1332C21.1953 73.3218 21.0992 73.5371 21.0505 73.7651C21.0017 73.9932 21.0014 74.2289 21.0495 74.4571C21.0976 74.6853 21.193 74.9009 21.3296 75.0899C21.4663 75.2789 21.641 75.4371 21.8426 75.5543C22.0442 75.6715 22.2682 75.7451 22.5 75.7704C22.7319 75.7956 22.9664 75.7719 23.1885 75.7008C23.4106 75.6297 23.6153 75.5127 23.7894 75.3576C23.9635 75.2024 24.1031 75.0124 24.1991 74.7999L34.5991 57.0665C34.7451 56.8023 34.8166 56.5034 34.8059 56.2017C34.7952 55.9 34.7028 55.6068 34.5385 55.3536C34.3743 55.1003 34.1443 54.8964 33.8731 54.7636C33.602 54.6309 33.2999 54.5743 32.9991 54.5999ZM76.8658 51.8665C76.549 51.883 76.2435 51.9895 75.9852 52.1736C75.7269 52.3577 75.5265 52.6116 75.4075 52.9056C75.2884 53.1996 75.2558 53.5215 75.3134 53.8334C75.3709 54.1454 75.5163 54.4344 75.7324 54.6665L85.4658 65.1999C85.5993 65.3958 85.7732 65.561 85.9756 65.6843C86.1781 65.8077 86.4046 65.8865 86.6399 65.9153C86.8753 65.9442 87.1141 65.9225 87.3404 65.8518C87.5667 65.781 87.7753 65.6627 87.9523 65.5049C88.1292 65.3471 88.2705 65.1533 88.3665 64.9365C88.4626 64.7198 88.5114 64.485 88.5095 64.2479C88.5076 64.0108 88.4552 63.7768 88.3557 63.5616C88.2562 63.3464 88.1119 63.1549 87.9324 62.9999L78.1991 52.4665C78.0371 52.2718 77.8328 52.1165 77.6017 52.0125C77.3707 51.9085 77.119 51.8586 76.8658 51.8665ZM66.7324 54.5999C66.4542 54.621 66.1856 54.7117 65.9515 54.8636C65.7174 55.0155 65.5251 55.2237 65.3924 55.4692C65.2597 55.7147 65.1908 55.9896 65.1919 56.2687C65.1931 56.5478 65.2643 56.8221 65.3991 57.0665L75.7991 74.7999C75.8951 75.0124 76.0347 75.2024 76.2088 75.3576C76.3829 75.5127 76.5876 75.6297 76.8097 75.7008C77.0318 75.7719 77.2663 75.7956 77.4982 75.7704C77.73 75.7451 77.954 75.6715 78.1556 75.5543C78.3572 75.4371 78.5319 75.2789 78.6686 75.0899C78.8052 74.9009 78.9006 74.6853 78.9487 74.4571C78.9968 74.2289 78.9965 73.9932 78.9477 73.7651C78.899 73.5371 78.8029 73.3218 78.6658 73.1332L68.2658 55.3999C68.1078 55.139 67.8814 54.9265 67.611 54.7854C67.3406 54.6444 67.0368 54.5802 66.7324 54.5999Z" fill="#043915"/>
</svg>
