<svg width="100" height="100" viewBox="0 0 100 100" fill="none" xmlns="http://www.w3.org/2000/svg">
<path d="M16.125 6.4751H83.9688C89.4062 6.4751 93.8438 10.8813 93.8438 16.3188V28.1063H93.75C92.106 28.1061 90.4701 28.3376 88.8906 28.7938L76.6781 16.5813C74.912 14.8246 72.5223 13.8384 70.0312 13.8384C67.5402 13.8384 65.1505 14.8246 63.3844 16.5813L56.0562 23.9095C55.7248 24.2345 55.3359 24.4952 54.9094 24.6782C52.4369 23.513 49.7364 22.912 47.0031 22.9188C42.2577 22.91 37.6897 24.722 34.2406 27.9813C33.1818 26.7972 31.8284 25.9143 30.318 25.4222C28.8076 24.9302 27.1939 24.8465 25.6407 25.1797C24.0875 25.513 22.6501 26.2512 21.4745 27.3196C20.2988 28.3879 19.4268 29.7483 18.9469 31.2626H18.7813C13.4219 31.2626 8.75 34.1626 6.25 38.4845V16.3501C6.25 13.7311 7.2904 11.2193 9.14232 9.36742C10.9942 7.5155 13.506 6.4751 16.125 6.4751ZM74.4688 18.7938L85.7406 30.0626L93.8438 38.1688V53.1063H88.25C88.5538 52.8337 88.7585 52.4679 88.832 52.0663C88.9055 51.6648 88.8437 51.2502 88.6562 50.8876L85.9375 45.6376C85.7802 45.3348 85.5415 45.0819 85.2482 44.9075C84.9548 44.7332 84.6187 44.6442 84.2775 44.6507C83.9363 44.6572 83.6038 44.7589 83.3173 44.9443C83.0308 45.1297 82.8019 45.3915 82.6562 45.7001L80.125 50.9501C79.9502 51.3068 79.8975 51.711 79.9748 52.1005C80.0522 52.4901 80.2554 52.8435 80.5531 53.1063H48.8031C49.0221 53.1027 49.2365 53.0436 49.4264 52.9345C49.6163 52.8254 49.7753 52.6698 49.8887 52.4825C50.0021 52.2951 50.066 52.082 50.0745 51.8632C50.0831 51.6444 50.0359 51.427 49.9375 51.2313L48.0312 47.5126C47.5 46.5751 46.1562 46.6063 45.6875 47.5438L43.9062 51.2626C43.8148 51.4572 43.7732 51.6716 43.7854 51.8863C43.7976 52.101 43.8631 52.3093 43.976 52.4923C44.0889 52.6754 44.2457 52.8273 44.4321 52.9346C44.6185 53.0418 44.8288 53.1008 45.0437 53.1063H29.0281L29.0375 53.097H20.4656C20.69 52.7837 20.8237 52.4146 20.8518 52.0303C20.8799 51.646 20.8014 51.2614 20.625 50.9188L17.5 44.8876C17.3219 44.5375 17.0497 44.244 16.714 44.0401C16.3784 43.8361 15.9925 43.7298 15.5997 43.7331C15.2069 43.7363 14.8229 43.849 14.4906 44.0585C14.1583 44.2679 13.891 44.5659 13.7187 44.9188L10.8125 50.9501C10.6453 51.2908 10.5739 51.6705 10.6058 52.0486C10.6377 52.4268 10.7718 52.7891 10.9937 53.097H6.32188L6.325 53.1032H6.25V47.3032C6.51626 47.1118 6.76703 46.8997 7 46.6688L14.3438 39.3251C16.7812 36.8876 20.7812 36.8876 23.2188 39.3251L32.6813 48.7845L34.3125 46.8563L47.9062 30.5438C49.1875 29.0126 51.0938 28.1063 53.0938 28.1063H53.4688C55.258 28.0973 56.9732 27.391 58.25 26.1376L65.5938 18.7938C68.0312 16.3563 72.0312 16.3563 74.4688 18.7938ZM93.8438 65.9063C79.3513 63.6237 64.7024 62.4785 50.0312 62.4813C35.3705 62.4802 20.7322 63.6253 6.25 65.9063V83.8876C6.25 86.5066 7.2904 89.0183 9.14232 90.8703C10.9942 92.7222 13.506 93.7626 16.125 93.7626H83.9688C86.5878 93.7626 89.0995 92.7222 90.9514 90.8703C92.8034 89.0183 93.8438 86.5066 93.8438 83.8876V65.9063Z" fill="#043915"/>
</svg>
