<svg width="20" height="20" viewBox="0 0 20 20" fill="none" xmlns="http://www.w3.org/2000/svg">
<path d="M16.2503 18.3333C16.5818 18.3333 16.8998 18.2016 17.1342 17.9672C17.3686 17.7328 17.5003 17.4149 17.5003 17.0833V14.1667C17.5003 13.8351 17.3686 13.5172 17.1342 13.2828C16.8998 13.0484 16.5818 12.9167 16.2503 12.9167C15.2753 12.9167 14.317 12.7667 13.4003 12.4583C13.1812 12.3892 12.9472 12.3813 12.724 12.4357C12.5007 12.49 12.2965 12.6045 12.1337 12.7667L10.9337 13.9667C8.86052 12.8353 7.15665 11.1315 6.02533 9.05833L7.21699 7.86667C7.55866 7.54167 7.68366 7.05833 7.53366 6.59167C7.23366 5.68333 7.08366 4.725 7.08366 3.75C7.08366 3.41848 6.95196 3.10054 6.71754 2.86612C6.48312 2.6317 6.16518 2.5 5.83366 2.5H2.91699C2.58547 2.5 2.26753 2.6317 2.03311 2.86612C1.79869 3.10054 1.66699 3.41848 1.66699 3.75C1.66699 11.7917 8.20866 18.3333 16.2503 18.3333ZM2.91699 3.33333H5.83366C5.94417 3.33333 6.05015 3.37723 6.12829 3.45537C6.20643 3.53351 6.25033 3.63949 6.25033 3.75C6.25033 4.81667 6.41699 5.85833 6.74199 6.85C6.78366 6.96667 6.77533 7.13333 6.64199 7.26667L5.00033 8.9C6.37533 11.5917 8.39199 13.6083 11.092 15L12.717 13.3583C12.8337 13.2417 12.992 13.2083 13.142 13.25C14.142 13.5833 15.1837 13.75 16.2503 13.75C16.3608 13.75 16.4668 13.7939 16.545 13.872C16.6231 13.9502 16.667 14.0562 16.667 14.1667V17.0833C16.667 17.1938 16.6231 17.2998 16.545 17.378C16.4668 17.4561 16.3608 17.5 16.2503 17.5C8.66699 17.5 2.50033 11.3333 2.50033 3.75C2.50033 3.63949 2.54422 3.53351 2.62236 3.45537C2.7005 3.37723 2.80649 3.33333 2.91699 3.33333Z" fill="#B0CE88"/>
</svg>
