<svg width="88" height="63" viewBox="0 0 88 63" fill="none" xmlns="http://www.w3.org/2000/svg">
<path d="M74.9186 60.3337C80.6716 60.3337 85.3353 55.67 85.3353 49.917C85.3353 44.1641 80.6716 39.5004 74.9186 39.5004C69.1657 39.5004 64.502 44.1641 64.502 49.917C64.502 55.67 69.1657 60.3337 74.9186 60.3337Z" stroke="#043915" stroke-width="4"/>
<path d="M12.4186 60.3337C18.1716 60.3337 22.8353 55.67 22.8353 49.917C22.8353 44.1641 18.1716 39.5004 12.4186 39.5004C6.66565 39.5004 2.00195 44.1641 2.00195 49.917C2.00195 55.67 6.66565 60.3337 12.4186 60.3337Z" stroke="#043915" stroke-width="4"/>
<path d="M77.9814 13.9587C83.3189 20.4545 85.1773 26.6337 85.3314 29.9004C82.4324 28.5763 79.281 27.8954 76.0939 27.9045C65.9064 27.9045 56.7606 34.6795 54.5773 43.7045C54.0523 45.8629 53.7939 46.942 53.2273 47.3879C52.6606 47.8337 51.7439 47.8337 49.9148 47.8337H37.9231C36.0773 47.8337 35.1564 47.8337 34.5898 47.3837C34.0189 46.9254 33.7689 45.8545 33.2731 43.7045C31.2064 34.7962 22.8231 27.0504 14.0939 27.7045C13.2148 27.7754 12.7731 27.8087 12.4689 27.7379C12.1731 27.6712 11.8689 27.5004 11.2606 27.1545C9.50643 26.167 7.71477 25.2254 5.99393 24.1795C4.81434 23.4606 3.83197 22.4597 3.1352 21.2669C2.43843 20.0741 2.04911 18.7268 2.00227 17.3462C1.9481 15.7462 2.86477 14.1629 4.71893 14.5962L31.4689 20.892C33.4814 21.367 34.4856 21.6004 35.3481 21.442C36.2106 21.2837 37.2731 20.5587 39.3898 19.1087C44.7564 15.442 53.2648 11.9712 61.7439 15.0337C64.0648 15.8712 65.2273 16.292 65.8856 16.3129C66.5523 16.3337 67.5189 16.0504 69.4564 15.4879C72.2323 14.6682 75.0896 14.1554 77.9773 13.9587C74.6356 9.8837 69.9189 5.68787 63.3939 2.00037" stroke="#043915" stroke-width="4" stroke-linecap="round" stroke-linejoin="round"/>
</svg>
