<svg width="78" height="78" viewBox="0 0 78 78" fill="none" xmlns="http://www.w3.org/2000/svg">
<path d="M26.5 64C26.5 64 30.25 48.4125 39 39" stroke="#043915" stroke-width="3" stroke-linecap="round" stroke-linejoin="round"/>
<path d="M56.4414 19.1708L57.9997 35.3792C59.0122 45.8917 51.1289 55.2542 40.6164 56.2625C30.3039 57.2542 20.9581 49.7167 19.9664 39.4C19.4893 34.4471 20.9991 29.5076 24.1637 25.6678C27.3283 21.8281 31.8886 19.4026 36.8414 18.925L54.1206 17.2583C54.3989 17.2313 54.6798 17.2595 54.9472 17.3413C55.2146 17.4231 55.4632 17.5569 55.6788 17.7349C55.8944 17.913 56.0728 18.1318 56.2036 18.379C56.3345 18.6261 56.4153 18.8924 56.4414 19.1708Z" stroke="#043915" stroke-width="3" stroke-linecap="round" stroke-linejoin="round"/>
<path d="M76.5 4V74C76.5 74.663 76.2366 75.2989 75.7678 75.7678C75.2989 76.2366 74.663 76.5 74 76.5H4C3.33696 76.5 2.70107 76.2366 2.23223 75.7678C1.76339 75.2989 1.5 74.663 1.5 74V4C1.5 3.33696 1.76339 2.70107 2.23223 2.23223C2.70107 1.76339 3.33696 1.5 4 1.5H74C74.663 1.5 75.2989 1.76339 75.7678 2.23223C76.2366 2.70107 76.5 3.33696 76.5 4Z" stroke="#043915" stroke-width="3" stroke-linecap="round" stroke-linejoin="round"/>
</svg>
