<svg width="69" height="86" viewBox="0 0 69 86" fill="none" xmlns="http://www.w3.org/2000/svg">
<path d="M63.5 1H5.16667C2.86548 1 1 2.86548 1 5.16667V80.1667C1 82.4679 2.86548 84.3333 5.16667 84.3333H63.5C65.8012 84.3333 67.6667 82.4679 67.6667 80.1667V5.16667C67.6667 2.86548 65.8012 1 63.5 1Z" stroke="#043915" stroke-width="2"/>
<path d="M1 17.6667C1 18.7717 1.43899 19.8315 2.22039 20.6129C3.00179 21.3943 4.0616 21.8333 5.16667 21.8333H63.5C64.6051 21.8333 65.6649 21.3943 66.4463 20.6129C67.2277 19.8315 67.6667 18.7717 67.6667 17.6667V5.16667C67.6667 4.0616 67.2277 3.00179 66.4463 2.22039C65.6649 1.43899 64.6051 1 63.5 1H5.16667C4.0616 1 3.00179 1.43899 2.22039 2.22039C1.43899 3.00179 1 4.0616 1 5.16667V17.6667Z" stroke="#043915" stroke-width="2"/>
<path d="M13.4997 15.5833C15.8009 15.5833 17.6663 13.7179 17.6663 11.4167C17.6663 9.11548 15.8009 7.25 13.4997 7.25C11.1985 7.25 9.33301 9.11548 9.33301 11.4167C9.33301 13.7179 11.1985 15.5833 13.4997 15.5833Z" fill="#043915"/>
<path d="M25.9997 15.5833C28.3009 15.5833 30.1663 13.7179 30.1663 11.4167C30.1663 9.11548 28.3009 7.25 25.9997 7.25C23.6985 7.25 21.833 9.11548 21.833 11.4167C21.833 13.7179 23.6985 15.5833 25.9997 15.5833Z" fill="#043915"/>
<path d="M34.3333 67.6667C42.3875 67.6667 48.9167 61.1375 48.9167 53.0833C48.9167 45.0292 42.3875 38.5 34.3333 38.5C26.2792 38.5 19.75 45.0292 19.75 53.0833C19.75 61.1375 26.2792 67.6667 34.3333 67.6667Z" stroke="#043915" stroke-width="2"/>
</svg>
