<svg width="100" height="100" viewBox="0 0 100 100" fill="none" xmlns="http://www.w3.org/2000/svg">
<path d="M49.9993 52.0833H24.9993V56.25H49.9993V52.0833ZM74.9993 52.0833H49.9993V56.25H74.9993V52.0833ZM85.416 41.6667C85.416 43.0346 85.1466 44.3891 84.6231 45.6529C84.0996 46.9168 83.3323 48.0651 82.365 49.0324C81.3978 49.9996 80.2494 50.7669 78.9856 51.2904C77.7218 51.8139 76.3673 52.0833 74.9993 52.0833V56.25C78.8671 56.25 82.5764 54.7135 85.3113 51.9786C88.0462 49.2437 89.5827 45.5344 89.5827 41.6667H85.416ZM74.9993 31.25C76.3673 31.25 77.7218 31.5194 78.9856 32.0429C80.2494 32.5664 81.3978 33.3337 82.365 34.301C83.3323 35.2682 84.0996 36.4166 84.6231 37.6804C85.1466 38.9442 85.416 40.2987 85.416 41.6667H89.5827C89.5827 37.7989 88.0462 34.0896 85.3113 31.3547C82.5764 28.6198 78.8671 27.0833 74.9993 27.0833V31.25ZM70.916 23.9583C69.1073 19.924 66.1703 16.499 62.459 14.0963C58.7477 11.6935 54.4205 10.4156 49.9993 10.4167V14.5833C53.6176 14.5822 57.1589 15.6281 60.1961 17.5947C63.2333 19.5613 65.6365 22.3647 67.116 25.6667L70.916 23.9583ZM49.9993 10.4167C45.5781 10.4156 41.251 11.6935 37.5397 14.0963C33.8284 16.499 30.8914 19.924 29.0827 23.9583L32.8827 25.6667C34.3622 22.3647 36.7654 19.5613 39.8026 17.5947C42.8398 15.6281 46.3811 14.5822 49.9993 14.5833V10.4167ZM24.9993 27.0833C21.1316 27.0833 17.4223 28.6198 14.6874 31.3547C11.9525 34.0896 10.416 37.7989 10.416 41.6667H14.5827C14.5827 38.904 15.6801 36.2545 17.6337 34.301C19.5872 32.3475 22.2367 31.25 24.9993 31.25V27.0833ZM10.416 41.6667C10.416 45.5344 11.9525 49.2437 14.6874 51.9786C17.4223 54.7135 21.1316 56.25 24.9993 56.25V52.0833C22.2367 52.0833 19.5872 50.9859 17.6337 49.0324C15.6801 47.0788 14.5827 44.4293 14.5827 41.6667H10.416ZM29.0827 23.9583C28.2118 25.8917 26.6035 27.0833 24.9993 27.0833V31.25C28.7285 31.25 31.5702 28.5958 32.8827 25.6667L29.0827 23.9583ZM74.9993 27.0833C73.3952 27.0833 71.7868 25.8917 70.916 23.9583L67.116 25.6667C68.4327 28.5958 71.2702 31.25 74.9993 31.25V27.0833Z" fill="#043915"/>
<path d="M49.9994 79.1666V70.8333M70.8327 83.3333V70.8333M29.166 87.5V70.8333" stroke="#043915" stroke-linecap="round"/>
</svg>
